<svg xmlns="http://www.w3.org/2000/svg" width="30" height="34.286" viewBox="0 0 30 34.286">
  <path id="Icon_awesome-discord" data-name="Icon awesome-discord" d="M19.9,16.286a1.755,1.755,0,1,1-1.749-1.9A1.826,1.826,0,0,1,19.9,16.286Zm-8.006-1.9a1.91,1.91,0,0,0,0,3.806,1.826,1.826,0,0,0,1.749-1.9A1.815,1.815,0,0,0,11.9,14.383ZM30,3.531V34.286c-4.319-3.817-2.938-2.553-7.954-7.217l.909,3.171H3.514A3.523,3.523,0,0,1,0,26.709V3.531A3.523,3.523,0,0,1,3.514,0H26.486A3.523,3.523,0,0,1,30,3.531ZM25.114,19.783a22.957,22.957,0,0,0-2.469-9.994,8.477,8.477,0,0,0-4.817-1.8l-.24.274a11.409,11.409,0,0,1,4.269,2.177,14.566,14.566,0,0,0-12.806-.5c-.634.291-1.011.5-1.011.5a11.565,11.565,0,0,1,4.509-2.246l-.171-.206a8.477,8.477,0,0,0-4.817,1.8,22.957,22.957,0,0,0-2.469,9.994,6.216,6.216,0,0,0,5.229,2.606s.634-.771,1.149-1.423a5.332,5.332,0,0,1-3-2.023c.252.177.668.405.7.429a12.5,12.5,0,0,0,10.7.6A9.81,9.81,0,0,0,21.84,18.96a5.409,5.409,0,0,1-3.1,2.04c.514.651,1.131,1.389,1.131,1.389A6.266,6.266,0,0,0,25.114,19.783Z" fill="#3a5b9a"/>
</svg>
