<svg xmlns="http://www.w3.org/2000/svg" width="30" height="24" viewBox="0 0 30 24">
  <path id="Icon_awesome-robot" data-name="Icon awesome-robot" d="M0,12v6a1.5,1.5,0,0,0,1.5,1.5H3v-9H1.5A1.5,1.5,0,0,0,0,12ZM21.75,4.5H16.5v-3a1.5,1.5,0,0,0-3,0v3H8.25A3.749,3.749,0,0,0,4.5,8.25V21a3,3,0,0,0,3,3h15a3,3,0,0,0,3-3V8.25A3.749,3.749,0,0,0,21.75,4.5ZM12,19.5H9V18h3Zm-1.5-5.625A1.875,1.875,0,1,1,12.375,12,1.874,1.874,0,0,1,10.5,13.875Zm6,5.625h-3V18h3Zm4.5,0H18V18h3Zm-1.5-5.625A1.875,1.875,0,1,1,21.375,12,1.874,1.874,0,0,1,19.5,13.875Zm9-3.375H27v9h1.5A1.5,1.5,0,0,0,30,18V12A1.5,1.5,0,0,0,28.5,10.5Z" fill="#19d2d2"/>
</svg>
