<svg xmlns="http://www.w3.org/2000/svg" width="15" height="15" viewBox="0 0 15 15">
  <g id="copy" transform="translate(-2.25 -2.25)">
    <path id="Path_37" data-name="Path 37" d="M17.786,20.2h-7.5a2.411,2.411,0,0,1-2.411-2.411v-7.5a2.411,2.411,0,0,1,2.411-2.411h7.5A2.411,2.411,0,0,1,20.2,10.286v7.5A2.411,2.411,0,0,1,17.786,20.2Z" transform="translate(-2.947 -2.947)" fill="#78c3fb"/>
    <path id="Path_38" data-name="Path 38" d="M6.536,3.857h7.9A2.415,2.415,0,0,0,12.161,2.25h-7.5A2.411,2.411,0,0,0,2.25,4.661v7.5a2.415,2.415,0,0,0,1.607,2.273v-7.9A2.678,2.678,0,0,1,6.536,3.857Z" transform="translate(0)" fill="#78c3fb"/>
  </g>
</svg>
