<svg xmlns="http://www.w3.org/2000/svg" xmlns:xlink="http://www.w3.org/1999/xlink" width="436.703" height="344.774" viewBox="0 0 436.703 344.774">
  <defs>
    <clipPath id="clip-path">
      <path id="Rectangle_26" data-name="Rectangle 26" d="M0,0H375a0,0,0,0,1,0,0V216a85,85,0,0,1-85,85H0a0,0,0,0,1,0,0V0A0,0,0,0,1,0,0Z" transform="translate(1449 700)" fill="#fff" stroke="#707070" stroke-width="1"/>
    </clipPath>
    <clipPath id="clip-path-2">
      <rect id="Rectangle_25" data-name="Rectangle 25" width="341.712" height="289.081" fill="none"/>
    </clipPath>
  </defs>
  <g id="Group_114" data-name="Group 114" transform="translate(-1379.297 -648.226)">
    <g id="Mask_Group_5" data-name="Mask Group 5" transform="translate(-8 -8)" clip-path="url(#clip-path)">
      <g id="Group_113" data-name="Group 113" transform="translate(1482.288 717.919)">
        <g id="Group_112" data-name="Group 112" clip-path="url(#clip-path-2)">
          <path id="Path_156" data-name="Path 156" d="M58.413,168.706,18.868,129.16A7.8,7.8,0,0,1,29.9,118.122L58.413,146.63a7.806,7.806,0,0,0,11.037,0L193.206,22.874a7.8,7.8,0,0,1,11.037,0l118.695,118.7A7.8,7.8,0,0,1,311.9,152.607L204.243,44.95a7.8,7.8,0,0,0-11.037,0L69.45,168.706a7.8,7.8,0,0,1-11.037,0" transform="translate(3.333 4.139)" fill="#285943"/>
          <path id="Path_157" data-name="Path 157" d="M2.287,263.929h0a7.8,7.8,0,0,1,0-11.037L197.206,57.97a7.806,7.806,0,0,1,11.037,0l74.025,74.025a7.8,7.8,0,0,1,0,11.036l-41.852,41.853a7.8,7.8,0,0,0,0,11.036l15.219,15.218a7.8,7.8,0,0,0,11.037,0l19.194-19.2a7.806,7.806,0,0,1,11.039,0L336.757,231.8a7.8,7.8,0,1,1-11.037,11.037l-28.814-28.814a7.805,7.805,0,0,0-11.037,0l-19.195,19.195a7.8,7.8,0,0,1-11.037,0l-37.294-37.294a7.8,7.8,0,0,1,0-11.036l41.852-41.853a7.8,7.8,0,0,0,0-11.036l-51.95-51.948a7.8,7.8,0,0,0-11.037,0L13.323,263.929a7.8,7.8,0,0,1-11.036,0" transform="translate(0 11.194)" fill="#91c499"/>
          <path id="Path_158" data-name="Path 158" d="M292.584,268.881l-19.428-19.427a7.8,7.8,0,0,0-11.036,0L244.944,266.63a7.805,7.805,0,0,1-11.037,0L121.216,153.937a7.8,7.8,0,0,1,0-11.037l51.5-51.5a7.806,7.806,0,0,1,11.037,0l35.579,35.582a7.8,7.8,0,0,1,0,11.037l-33.01,33.01a7.8,7.8,0,0,1-11.037-11.037l21.973-21.973a7.8,7.8,0,0,0,0-11.037l-13.5-13.506a7.806,7.806,0,0,0-11.037,0L143.29,142.9a7.8,7.8,0,0,0,0,11.037l90.616,90.616a7.8,7.8,0,0,0,11.037,0l17.175-17.175a7.8,7.8,0,0,1,11.037,0l30.465,30.465a7.8,7.8,0,0,1,0,11.037h0a7.8,7.8,0,0,1-11.036,0" transform="translate(23.908 17.914)" fill="#ce4760"/>
          <path id="Path_159" data-name="Path 159" d="M285.751,185.5l-27.022-27.021a7.8,7.8,0,0,0-11.037,0l-22.265,22.265a7.8,7.8,0,0,1-11.036,0h0a7.8,7.8,0,0,1,0-11.037l33.3-33.3a7.8,7.8,0,0,1,11.037,0l38.059,38.059a7.8,7.8,0,0,1,0,11.037h0a7.8,7.8,0,0,1-11.036,0" transform="translate(42.638 26.961)" fill="#78c3fb"/>
          <path id="Path_160" data-name="Path 160" d="M278.939,116.476l-86.4-86.4a7.8,7.8,0,1,1,11.037-11.037l86.4,86.4a7.8,7.8,0,1,1-11.037,11.037" transform="translate(38.247 3.368)" fill="#f5b700"/>
          <path id="Path_161" data-name="Path 161" d="M276.3,78.481,211.14,13.323A7.8,7.8,0,0,1,222.177,2.286l65.158,65.158A7.8,7.8,0,0,1,276.3,78.481" transform="translate(41.985 0)" fill="#91c499"/>
          <path id="Path_162" data-name="Path 162" d="M262.519,32.317,248.693,18.492A7.8,7.8,0,0,1,259.73,7.455L273.556,21.28a7.8,7.8,0,0,1-11.037,11.037" transform="translate(49.534 1.039)" fill="#285943"/>
        </g>
      </g>
    </g>
    <path id="comment-square" d="M152.9,152.9H137.97L115.987,112.43H8.716a7.6,7.6,0,0,1-7.591-7.591V8.716A7.6,7.6,0,0,1,8.716,1.125h136.6a7.6,7.6,0,0,1,7.591,7.591ZM11.244,102.311H122l20.781,38.257V11.244H11.244Z" transform="translate(1383.172 652.101)" fill="#91c499" stroke="#91c499" stroke-linecap="round" stroke-linejoin="round" stroke-width="10"/>
  </g>
</svg>
