<svg id="CIRCLE_OUTLINE_BLACK" data-name="CIRCLE OUTLINE BLACK" xmlns="http://www.w3.org/2000/svg" viewBox="0 0 512 512"><circle cx="256" cy="256" r="256"/><path d="M212.82861,142.97624c-67.20937,25.9057-73.36615,92.25045-92.63785,123.23515-19.49984,31.35242-64.17343,48.6507-58.0644,64.629,6.10877,15.97586,50.83552-1.18386,86.22091,9.01058,34.966,10.07382,83.75377,55.24481,150.96264,29.33789a120.60078,120.60078,0,0,0,70.43063-72.531,5.59661,5.59661,0,0,0-4.70341-7.48782,5.51222,5.51222,0,0,0-5.44918,3.01108,95.40777,95.40777,0,0,1-171.63576-1.684c-1.0827-2.28106-2.11247-4.5993-3.02535-6.99754-.91829-2.398-1.6985-4.8122-2.415-7.237,20.20057-9.45434,43.51115-19.4681,69.93862-29.65244,25.9094-9.98719,49.49295-18.0876,70.48726-24.56827q21.30565-6.57076,38.97852-11.00491c.8516-.21315,1.68841-.42628,2.52278-.63426a3.62455,3.62455,0,0,1,4.2604,2.22766l.01228.032c.38641,1.018.72114,2.0411,1.08295,3.06448a122.81458,122.81458,0,0,1,5.21536,19.96355,4.32022,4.32022,0,0,0,6.30075,3.11222c9.65051-5.20131,18.47648-10.2749,26.36226-15.15651,29.38956-18.173,45.683-33.58524,42.33811-42.32015-3.3374-8.74009-25.71495-9.24095-59.66765-3.00567-10.79005,1.98252-22.75164,4.64705-35.64356,7.94609q-3.34483.855-6.76838,1.76914c-10.84913,2.88851-22.2914,6.19813-34.20624,9.902-22.15845,6.89072-45.93151,15.14594-70.47492,24.60545-22.95936,8.85206-44.72035,18.029-64.67676,27.17421A96.00491,96.00491,0,0,1,239.91792,159.481a94.86087,94.86087,0,0,1,69.02526.21315,5.50511,5.50511,0,0,0,6.062-1.42285,5.6141,5.6141,0,0,0-1.49887-8.72408A119.95143,119.95143,0,0,0,212.82861,142.97624Z" fill="#faf1e4"/></svg>