<?xml version="1.0" standalone="no"?>
<!DOCTYPE svg PUBLIC "-//W3C//DTD SVG 20010904//EN"
 "http://www.w3.org/TR/2001/REC-SVG-20010904/DTD/svg10.dtd">
<svg version="1.0" xmlns="http://www.w3.org/2000/svg"
 width="512.000000pt" height="512.000000pt" viewBox="0 0 512.000000 512.000000"
 preserveAspectRatio="xMidYMid meet">

<g transform="translate(0.000000,512.000000) scale(0.100000,-0.100000)"
fill="#000000" stroke="none">
<path d="M1229 4208 c16 -24 299 -405 629 -848 l599 -804 -673 -898 c-371
-494 -674 -900 -674 -903 0 -3 42 -5 94 -5 l94 0 628 840 c431 579 630 837
638 831 6 -5 290 -383 631 -840 l620 -830 98 -1 c53 0 97 2 97 5 0 3 -303 410
-674 904 l-674 899 610 818 c335 451 619 831 629 847 l20 27 -94 0 -95 0 -573
-772 c-316 -424 -579 -778 -585 -786 -8 -11 -135 153 -594 772 l-585 786 -98
0 -98 0 30 -42z"/>
</g>
</svg>
