<svg xmlns="http://www.w3.org/2000/svg" viewBox="0 0 259.36 251.08"><defs><style>.cls-1{fill:aqua;}</style></defs><title>8jCCrc.tif</title><g id="Layer_2" data-name="Layer 2"><g id="Layer_1-2" data-name="Layer 1"><g id="_8jCCrc.tif" data-name="8jCCrc.tif"><path class="cls-1" d="M0,2.44c.31-.36.61-.73.93-1.08A3.77,3.77,0,0,1,5.18.24L43.73,13.09Q58.46,18,73.18,22.93l38.89,12.94,31,10.37c3.3,1.11,6.6,2.19,9.9,3.28a4.53,4.53,0,0,1,2.81,2.08,3.66,3.66,0,0,1-.22,4.17,3.9,3.9,0,0,1-4.49,1.41c-2.1-.65-4.19-1.35-6.27-2L119.6,46.68,76,32.11Q56.86,25.72,37.67,19.36l-8.53-2.84c-.33-.11-.65-.32-1-.17-.11.39.23.47.43.62l27.75,20q16,11.55,32,23.12C95.11,65,102,69.89,108.81,74.83Q124.92,86.44,141,98.08c1.75,1.27,3.53,2.5,5.26,3.78a2.94,2.94,0,0,0,2.47.52c8.27-1.45,16.54-2.84,24.81-4.27,5.47-1,10.93-2,16.4-2.92,9.17-1.59,18.35-3.14,27.53-4.73,6.81-1.17,13.62-2.37,20.43-3.56.23,0,.58,0,.59-.29,0-.5-.49-.45-.79-.56l-17.86-6q-17.13-5.73-34.24-11.45c-5.84-1.94-11.7-3.85-17.55-5.77a4.2,4.2,0,0,1-3.2-3.23,3.65,3.65,0,0,1,1.37-3.73,4,4,0,0,1,4.07-.61q8.35,2.81,16.72,5.58,18.7,6.23,37.42,12.44Q239.21,78.24,254,83.2c1,.32,1.91.59,2.83,1a3.76,3.76,0,0,1,1.29,6.37c-4,3.91-8.09,7.74-12.15,11.59-3.49,3.29-7,6.56-10.49,9.84l-25.41,23.94q-4.49,4.23-9,8.44a2.25,2.25,0,0,0-.68,1.49c-.45,3.65-.91,7.29-1.35,10.94-.41,3.41-.8,6.83-1.2,10.24q-1,8.21-1.94,16.42c-.77,6.35-1.56,12.69-2.31,19-.4,3.29-.73,6.59-1.1,9.89a13.94,13.94,0,0,1-.22,1.42c-.66,3.44-3.5,4.7-6.46,2.83-11.5-7.25-23-14.54-34.49-21.77-2.51-1.58-1.91-1.7-4.13.41l-25.39,24.13-13.83,13.12c-.27.25-.52.5-.81.72-2.37,1.83-5.09,1.22-6.37-1.5-1.08-2.28-2.06-4.6-3.08-6.9q-5.55-12.49-11.11-25-6.88-15.51-13.78-31L60.46,141.13l-18.21-41L24,59.05Q14.89,38.61,5.81,18.17C4.16,14.44,2.53,10.7.86,7A3.17,3.17,0,0,0,0,5.56ZM46.75,39.76l-.28.3c.45.39.91.77,1.34,1.18q5.88,5.65,11.75,11.31,7.89,7.64,15.76,15.28Q86.54,78.75,97.73,89.7c.63.61,1.29,1.2,1.92,1.82,2.57,2.51,5.17,5,7.68,7.58a3.38,3.38,0,0,1,.67,4.1,3.72,3.72,0,0,1-3.63,2.27A4.52,4.52,0,0,1,101.2,104q-3.54-3.4-7.06-6.84L68.58,72.33l-15.5-15L27.78,32.73,16.78,22c-.21-.21-.36-.54-.74-.52-.14.17,0,.31,0,.45L26.36,45.06q6.08,13.63,12.16,27.28,7,15.72,14,31.46T66.38,135q7.43,16.72,14.83,33.44,5.52,12.45,11.05,24.88,5.24,11.79,10.49,23.56c.1.24.14.6.5.59s.35-.37.42-.63q2-8.46,4.06-16.91,2.38-9.9,4.76-19.81,2.9-12,5.8-23.89c2.19-9.05,4.35-18.1,6.58-27.15a2.75,2.75,0,0,0-.85-3c-3.81-3.59-7.53-7.28-11.27-11a3.58,3.58,0,0,1-1.21-3.78c1-3.25,4.25-4,6.83-1.64,2.14,2,4.23,4,6.31,6.07q7.63,7.55,15.41,14.95c6,5.73,11.88,11.54,17.82,17.3q7.53,7.32,15.07,14.61a9.37,9.37,0,0,1,2.52,3.59q4.41,12.38,8.86,24.72a37.11,37.11,0,0,0,1.82,4.75,1,1,0,0,0,.46-.93c0-1.52.33-3,.51-4.52.93-7.9,1.82-15.8,2.74-23.7.78-6.67,1.54-13.34,2.43-20a2.51,2.51,0,0,0-1.29-2.74c-4.31-3-8.59-6.14-12.87-9.22l-35.59-25.7L116.78,90.28Q97.87,76.63,79,63,67.1,54.39,55.21,45.85Zm64.76,178.13c.5.12.64-.18.83-.36q8.43-8,16.84-16,4.9-4.68,9.82-9.33,12.93-12.24,25.88-24.46c.83-.78.77-1.23,0-2q-7.16-6.84-14.23-13.75c-4.76-4.62-9.49-9.28-14.24-13.91-1.23-1.2-2.5-2.36-3.72-3.56-.57-.57-1-.76-1.14.26,0,.23-.12.46-.18.69-1.26,5.33-2.51,10.66-3.79,16q-4.05,16.83-8.12,33.67-3.33,13.8-6.69,27.6Q112.12,215.3,111.51,217.89ZM242.57,94.27a1.93,1.93,0,0,0-1.28,0l-20.67,3.57L208,100l-15.93,2.78-13.34,2.32L166,107.37q-4.2.73-8.38,1.5c-.29,0-.75,0-.79.39s.37.48.62.67l2.52,1.83q17.67,12.72,35.33,25.45a1.4,1.4,0,0,0,2.15-.15c2.61-2.53,5.28-5,7.93-7.49l20-18.8q8.12-7.65,16.23-15.29C242,95.14,242.45,94.88,242.57,94.27ZM180.38,203.92a.94.94,0,0,0,0-.89c-.91-2.55-1.84-5.11-2.75-7.67q-3.71-10.34-7.39-20.67c-.27-.76-.52-.75-1-.24q-6.65,6.31-13.33,12.61c-.69.65-.65,1,.17,1.51,6.36,4,12.7,8,19.06,12.05C176.8,201.73,178.56,202.8,180.38,203.92Z"/><path class="cls-1" d="M187.2,251.08a17,17,0,0,1-3.57-3q-15.34-15.37-30.7-30.72a11.59,11.59,0,0,1-1.47-1.73,3.87,3.87,0,0,1,5.61-5.14,59,59,0,0,1,5.51,5.33Q176.2,229.37,189.73,243c.51.51,1,1.05,1.45,1.6a3.82,3.82,0,0,1-.75,5.84c-.29.2-.55.45-.83.67Z"/><path class="cls-1" d="M245.76,251.08a53.75,53.75,0,0,1-6.26-5.9Q225.31,231,211.17,216.86c-1.75-1.76-2.08-3.25-1.12-5a3.75,3.75,0,0,1,5.51-1.43,10.37,10.37,0,0,1,1.62,1.42c10.55,10.53,21,21.13,31.67,31.58,2.8,2.75,2.75,5.75-.69,7.69Z"/><path class="cls-1" d="M246.91,192.33a4.18,4.18,0,0,1-3.1-1.58l-22.65-22.66q-5.22-5.22-10.42-10.44a3.55,3.55,0,0,1-1.06-3.73,3.89,3.89,0,0,1,3.23-2.86,4.25,4.25,0,0,1,3.76,1.47c1.91,1.89,3.79,3.79,5.69,5.68q13.37,13.36,26.72,26.72a5.76,5.76,0,0,1,1.66,2.46A3.85,3.85,0,0,1,246.91,192.33Z"/></g></g></g></svg>