<svg xmlns="http://www.w3.org/2000/svg" viewBox="0 0 259.37 228.99"><defs><style>.cls-1{fill:aqua;}</style></defs><title>3etnn0.tif</title><g id="Layer_2" data-name="Layer 2"><g id="Layer_1-2" data-name="Layer 1"><g id="_3etnn0.tif" data-name="3etnn0.tif"><path class="cls-1" d="M0,149c.74-.7,1-1.73,1.59-2.52a8.22,8.22,0,0,1,6.66-3.23q16.62,0,33.24,0a8.3,8.3,0,0,1,8.45,8.32c0,.65-.34,1.61.25,1.89s1.12-.6,1.6-1c5.59-4.9,11.12-9.87,16.74-14.74A55.71,55.71,0,0,1,89,126.54a57.09,57.09,0,0,1,20.24-2.43c3,.18,6,.64,8.93,1,4.52.59,9,1.13,13.59,1.37s8.86.53,13.3.39c6.27-.19,12.54-.51,18.81-.66A11,11,0,0,1,175,133.93a9.44,9.44,0,0,1,.47,2.34c.09.9.54,1,1.32.81l18.7-5.68L213.14,126c9.75-3,19.51-5.89,29.25-8.89,4.77-1.48,9.21-1.19,13,2.31a12,12,0,0,1-1.4,18.89c-9,6.34-18.11,12.62-27.17,18.92-2.3,1.6-4.58,3.22-6.92,4.76a3.72,3.72,0,0,1-4.68-.27,4,4,0,0,1-1.09-4.37,4.83,4.83,0,0,1,1.87-2.13l27.78-19.32c1.87-1.3,3.77-2.55,5.59-3.92,3-2.25,2.74-6-.42-7.51a4.26,4.26,0,0,0-3.16-.16q-12.79,3.9-25.58,7.78l-27.09,8.18c-9.91,3-19.81,6-29.73,8.94-7.9,2.33-15.82,4.57-23.73,6.85-3.62,1-7.23,2.07-10.21,4.56a47.52,47.52,0,0,0-6,6.56c-1.18,1.44-2.51,2.48-4.52,2a3.72,3.72,0,0,1-2.52-5.61c4.67-6.82,10.41-12.28,18.75-14.45,5.45-1.41,10.82-3.11,16.23-4.68l13.48-3.89a3.13,3.13,0,0,0,2.56-2.4,3.26,3.26,0,0,0-1.12-3.45,3,3,0,0,0-1.9-.62c-4.23,0-8.46.25-12.7.41a181.12,181.12,0,0,1-18.93-.06c-4.47-.3-8.92-.7-13.37-1.25-3.76-.47-7.51-1-11.3-1.32a43.12,43.12,0,0,0-9.44.47,47.79,47.79,0,0,0-13.75,4,51.92,51.92,0,0,0-12.59,8.27l-16,14.13c-1.92,1.7-3.8,3.43-5.73,5.11a2.08,2.08,0,0,0-.72,1.69q0,20.88,0,41.76c0,.35-.1.79.31,1s.67-.19,1-.38c3.57-2.44,7.09-5,10.82-7.13a48.1,48.1,0,0,1,19.13-6.23,46.13,46.13,0,0,1,12.42.42c6.79,1.07,13.55,2.4,20.36,3.26a84.69,84.69,0,0,0,18.9.24,93.29,93.29,0,0,0,19.81-4.05,85.1,85.1,0,0,0,21.16-10.06c9.65-6.37,19-13.16,28.53-19.71,2.4-1.65,4.85-1.4,6.16.72a3.73,3.73,0,0,1-.43,4.65,14.27,14.27,0,0,1-2.65,2.06c-9.2,6.37-18.34,12.85-27.66,19.05a91.75,91.75,0,0,1-25,11.48A95.3,95.3,0,0,1,137,206.06a101.31,101.31,0,0,1-22,.23c-7.72-.76-15.31-2.41-23-3.52a38.87,38.87,0,0,0-27.13,5.58c-4.64,2.91-9.12,6.07-13.7,9.08a2.32,2.32,0,0,0-1.22,2.26c.24,4.75-2.43,8-7.24,9.17A6.62,6.62,0,0,1,41,229c-10.72,0-21.44,0-32.16,0a8.66,8.66,0,0,1-8.38-5.32A5.15,5.15,0,0,0,0,223V174.24c.32-.36.63-.72,1-1.07a3.85,3.85,0,0,1,5-.55,4.08,4.08,0,0,1,1.73,3.73q0,21.41,0,42.82c0,1.59,0,1.65,1.59,1.65H40.37c1.56,0,1.63-.07,1.63-1.62V152.87c0-1.54-.12-1.66-1.62-1.67H9.31c-1.5,0-1.6.11-1.6,1.66,0,2.8,0,5.6,0,8.4a3.9,3.9,0,0,1-5.92,3.23C1,164.05.63,163.27,0,162.72Z"/><path class="cls-1" d="M180.24,0c1.42.76,3,.56,4.56.87A34.18,34.18,0,0,1,199.92,8c2,1.61,2.23,3.75.83,5.6a3.83,3.83,0,0,1-5.66.49A26.35,26.35,0,0,0,181.6,8.34a30,30,0,0,0-23.88,7.07A34.29,34.29,0,0,0,150,25c-1.88,3.36-5.44,3.38-7.35,0-3.88-6.84-9.23-12.13-16.67-14.82-10.25-3.7-20-2.79-28.72,4.23a26.33,26.33,0,0,0-9.08,15c-2.38,10.4.29,19.8,5.86,28.55,5,7.86,11.58,14.24,18.86,19.95,10,7.82,20.91,14,32.31,19.43a2.3,2.3,0,0,0,2.16,0,189.72,189.72,0,0,0,25.45-14.4,107.78,107.78,0,0,0,18.36-15.53c5.56-6,10.14-12.58,12.54-20.49a32.07,32.07,0,0,0-.57-21.5c-.65-1.67-.95-3.24.25-4.75,1.82-2.28,5-2,6.5.64a20.15,20.15,0,0,1,1.78,4.83,37.34,37.34,0,0,1,1.47,12.08,45.84,45.84,0,0,1-4.7,18,73.16,73.16,0,0,1-15.32,20.43,132.79,132.79,0,0,1-24,18c-6.33,3.83-12.92,7.19-19.57,10.42a6.57,6.57,0,0,1-6.25.06,205.76,205.76,0,0,1-28.77-16.29c-9.06-6.27-17.3-13.44-24-22.25a53.27,53.27,0,0,1-9.91-20.21C77.67,33.75,80,22.15,88.39,12.17A32.71,32.71,0,0,1,111,.44,1.38,1.38,0,0,0,112.08,0h5.76A1.28,1.28,0,0,0,119,.44a16.57,16.57,0,0,1,4.26.64,38.72,38.72,0,0,1,22.13,14c.83,1,1,1,1.76,0A37.83,37.83,0,0,1,153.1,9,36.63,36.63,0,0,1,173.66.45,1.33,1.33,0,0,0,174.72,0Z"/><path class="cls-1" d="M246.27,56.86a3.79,3.79,0,0,1-4.91,3.77c-2.91-.71-5.79-1.54-8.69-2.32-3.08-.84-6.16-1.69-9.25-2.51-1.68-.45-3-1.26-3.49-3.07a3.82,3.82,0,0,1,4.21-4.8,56.21,56.21,0,0,1,6.49,1.68q6.31,1.7,12.6,3.46A3.72,3.72,0,0,1,246.27,56.86Z"/><path class="cls-1" d="M50.46,60.76a4,4,0,0,1-4.12-3.14,3.77,3.77,0,0,1,2.83-4.5c3.61-1,7.24-2,10.86-3l6.82-1.89a6.52,6.52,0,0,1,2.47-.35,3.87,3.87,0,0,1,3.41,3.37,3.77,3.77,0,0,1-2.53,4.16c-3.44,1-6.92,1.95-10.38,2.9-2.74.76-5.48,1.49-8.22,2.22A11.14,11.14,0,0,1,50.46,60.76Z"/><path class="cls-1" d="M217.41,16.44a3.71,3.71,0,0,1,1.91-3.15q8.3-4.8,16.63-9.51A3.81,3.81,0,0,1,241.46,5c1.22,2.07.69,4.18-1.59,5.51-5.55,3.23-11.12,6.43-16.74,9.54A3.89,3.89,0,0,1,217.41,16.44Z"/><path class="cls-1" d="M75.14,16.23c0,3.42-3.11,5.31-5.79,3.82-4.51-2.5-9-5.1-13.44-7.65-1-.58-2-1.12-3-1.71C50.65,9.36,49.9,7.14,51,5.2,52.22,3,54.38,2.51,56.77,3.86c4.31,2.44,8.6,4.91,12.91,7.37,1.11.63,2.23,1.24,3.33,1.89A3.9,3.9,0,0,1,75.14,16.23Z"/><path class="cls-1" d="M26.88,206.72a8,8,0,0,1,.37-3.54,3.9,3.9,0,0,1,4.1-2.27,4,4,0,0,1,3.24,3.14,15.62,15.62,0,0,1,0,5.37,3.89,3.89,0,0,1-7.71-.3C26.81,208.32,26.88,207.52,26.88,206.72Z"/></g></g></g></svg>