<svg xmlns="http://www.w3.org/2000/svg" viewBox="0 0 259.2 221.74"><defs><style>.cls-1{fill:aqua;}</style></defs><title>QWtMOg.tif</title><g id="Layer_2" data-name="Layer 2"><g id="Layer_1-2" data-name="Layer 1"><g id="QWtMOg.tif"><path class="cls-1" d="M169.44,221.74c-.23-.37-.64-.46-1-.66a4.06,4.06,0,0,1-1.88-4.11,3.91,3.91,0,0,1,3-3,21.76,21.76,0,0,1,4-.14,13.35,13.35,0,0,0,2.75-.19,3.69,3.69,0,0,0,2.88-3.15,11.56,11.56,0,0,0,.06-1.56V139.43a11.56,11.56,0,0,0-.06-1.56,3.74,3.74,0,0,0-3.49-3.23c-.56,0-1.12,0-1.68,0H83.56a3.8,3.8,0,0,0-3.87,3.89c0,1.24,0,2.48,0,3.72q0,19.44,0,38.87a4.19,4.19,0,0,1-2.32,4.15,4,4,0,0,1-5.59-3.48c-.06-1.23,0-2.48,0-3.72,0-.86-.32-1.23-1.2-1.22q-5.28,0-10.56,0c-.86,0-1.24.32-1.21,1.2,0,1.24.05,2.48,0,3.72a1.54,1.54,0,0,0,1.05,1.65,12.46,12.46,0,0,1,6.63,7.23c3.11,8.51-4.42,17.58-13.41,16.16a12.28,12.28,0,0,1-10.54-12.61,12,12,0,0,1,7-10.59,2.22,2.22,0,0,0,1.42-2.39c-.08-2.56,0-5.12,0-7.68,0-3,1.59-4.59,4.59-4.59,4.92,0,9.84,0,14.76,0,1.12,0,1.54-.32,1.53-1.49,0-4.92,0-9.84,0-14.76,0-1-.25-1.52-1.41-1.51-4.32.06-8.64,0-13,0-1.16,0-1.55.43-1.51,1.56.06,1.95,0,3.92,0,5.88,0,2.85-1.57,4.36-4.41,4.36-5.36,0-10.72,0-16.08,0a2.12,2.12,0,0,0-2.23,1.34,12.28,12.28,0,0,1-23-3.65,11.76,11.76,0,0,1,4.41-11.53,11.76,11.76,0,0,1,12.63-1.76,11.67,11.67,0,0,1,6.35,6.39,2.16,2.16,0,0,0,2.37,1.48c3.56-.08,7.12-.05,10.68,0,1,0,1.43-.33,1.4-1.38-.06-1.92,0-3.84,0-5.76,0-3.13,1.65-4.81,4.82-4.82,5.44,0,10.88,0,16.32,0,2.91,0,2.67.26,2.6-2.66-.07-3.15.26-6.16,2.17-8.79a11.58,11.58,0,0,1,9.7-5.1c1.2,0,1.62-.43,1.58-1.62q-.09-3.36,0-6.72c0-1.17-.44-1.51-1.56-1.51-5.12,0-10.24,0-15.36,0a5.25,5.25,0,0,1-4-1.69c-3.34-3.45-6.73-6.84-10.06-10.3a3.23,3.23,0,0,0-2.53-1.06q-13.08.06-26.16,0a2.13,2.13,0,0,0-2.29,1.42,12.27,12.27,0,0,1-12.55,6.8A12.65,12.65,0,0,1,.47,103.65a2.29,2.29,0,0,0-.47-1V96.94c.57-.48.6-1.21.85-1.83A12.23,12.23,0,0,1,20.5,90.87a10.54,10.54,0,0,1,2.75,3.74A2,2,0,0,0,25.45,96c9.24,0,18.48,0,27.71,0a6.64,6.64,0,0,1,5.31,2.19c3.14,3.35,6.42,6.58,9.61,9.89a2.82,2.82,0,0,0,2.21,1c4.44,0,8.88,0,13.32,0,1.43,0,1.55-.13,1.56-1.6,0-2.24,0-4.48,0-6.72,0-1.09-.39-1.5-1.47-1.49-3.08,0-6.16,0-9.24,0-2.84,0-4.39-1.51-4.41-4.36,0-6.24,0-12.48,0-18.72a2.32,2.32,0,0,0-1.51-2.48A12.29,12.29,0,0,1,61.7,61.3a12.61,12.61,0,0,1,9-10.59A12.29,12.29,0,0,1,86.22,62.2c.08,5.38-2.44,9.13-7.11,11.54A1.7,1.7,0,0,0,78,75.46Q78,82.72,78,90c0,1,.38,1.44,1.42,1.41,1.67,0,3.36-.07,5,0A1.53,1.53,0,0,0,86.23,90a42.37,42.37,0,0,1,6.19-14.61,43.35,43.35,0,0,1,26.69-18.8c13.5-3.22,25.89-.55,37,7.68A43.15,43.15,0,0,1,172.72,90c.23,1,.62,1.45,1.67,1.43,1.83,0,3.68,0,5.52,0,.9,0,1.31-.32,1.3-1.26,0-5,0-9.92,0-14.88a1.42,1.42,0,0,0-1-1.43,11.91,11.91,0,0,1-6.86-8,12.29,12.29,0,1,1,24.14-2.49c-.22,4.79-2.81,8.24-7.06,10.38a2,2,0,0,0-1.31,2.11c0,6.16,0,12.32,0,18.48,0,3.5-1.39,4.87-4.88,4.88-3,0-6,0-9,0-1.06,0-1.53.31-1.5,1.44.06,2.35.05,4.72,0,7.07,0,1,.37,1.33,1.34,1.33q7,0,13.92,0a2.67,2.67,0,0,0,2.08-1c3.35-3.44,6.73-6.85,10.06-10.3a5.47,5.47,0,0,1,4.26-1.77c9.36,0,18.72,0,28.08,0a2.49,2.49,0,0,0,2.56-1.58c2.49-4.71,6.49-7.21,11.83-6.79a11.86,11.86,0,0,1,10.59,7.83c.21.51.2,1.12.71,1.49v5.76a2.24,2.24,0,0,0-.47,1,12.65,12.65,0,0,1-10.16,8.43,12.27,12.27,0,0,1-12.55-6.8,2.13,2.13,0,0,0-2.29-1.42q-13.08.06-26.16,0a3.1,3.1,0,0,0-2.53,1.07c-3.19,3.54-6.68,6.78-10,10.21a5.47,5.47,0,0,1-4.27,1.77c-5-.06-10,0-15,0-2,0-2,0-2,2v6c0,1.79,0,1.79,1.75,1.85A11.84,11.84,0,0,1,187,137a38.59,38.59,0,0,1,.16,5.15c0,.8.3,1.21,1.13,1.17.36,0,.72,0,1.08,0,5.68,0,11.36,0,17,0,3.09,0,4.74,1.71,4.75,4.77,0,2,0,3.92,0,5.88,0,1,.37,1.32,1.34,1.31,3.08,0,6.17-.16,9.24,0,2.23.15,3.43-.5,4.48-2.61a12,12,0,0,1,14.69-5.61,12.28,12.28,0,0,1-2.19,23.76A12.25,12.25,0,0,1,226,164.36a2.22,2.22,0,0,0-2.33-1.38c-5.36,0-10.72,0-16.08,0-2.76,0-4.29-1.53-4.33-4.31,0-2,0-3.92,0-5.88,0-1.47-.12-1.59-1.56-1.59q-6.48,0-13,0c-1.43,0-1.55.12-1.55,1.6,0,4.88,0,9.76,0,14.64,0,1.19.42,1.5,1.54,1.49,4.92,0,9.84,0,14.76,0,3.31,0,4.8,1.5,4.82,4.85,0,2.52.05,5,0,7.56a2.07,2.07,0,0,0,1.33,2.21,12,12,0,0,1,7,10.18c.78,8.92-8.48,15.65-16.79,12.35a12.29,12.29,0,0,1-7.69-13,12.12,12.12,0,0,1,7-9.54,1.84,1.84,0,0,0,1.23-2c-.07-1,0-2,0-3,0-1.59,0-1.64-1.59-1.64h-9.6c-2,0-2,0-2,2q0,15.36,0,30.72a11.84,11.84,0,0,1-8,11.44c-.7.26-1.53.2-2.12.77Zm-40-95.05h17.88c1.65,0,1.69,0,1.69-1.67,0-8.28,0-16.56,0-24.84a19.78,19.78,0,0,0-6.33-15c-5.18-5-14-6.65-20.58-3.76-7.43,3.28-11.53,9-12.22,17.08a4,4,0,0,1-4.12,3.82A3.86,3.86,0,0,1,102.14,98a26.7,26.7,0,0,1,8.4-18.28,27.44,27.44,0,0,1,38.49.63,27.27,27.27,0,0,1,7.95,20q0,12.24,0,24.48c0,1.89,0,1.89,1.83,1.89h5.4c1.74,0,1.81-.07,1.81-1.84q0-12.06,0-24.12c0-1.52-.07-3-.22-4.55A35.67,35.67,0,0,0,153.24,72,36.39,36.39,0,0,0,99.91,78.3a32.6,32.6,0,0,0-6.68,18.34c-.29,9.59-.1,19.2-.13,28.8,0,.94.37,1.28,1.29,1.26,2.08,0,4.16,0,6.24,0,1,0,1.41-.36,1.4-1.4,0-2.76,0-5.52,0-8.28a5.77,5.77,0,0,1,.48-2.69,3.9,3.9,0,0,1,4.46-2,4,4,0,0,1,3,3.79c0,3,0,6,0,9,0,1.51.06,1.57,1.55,1.57Zm-102.77,32a4.22,4.22,0,0,0-4.35-4.42,4.41,4.41,0,0,0-4.53,4.32,4.5,4.5,0,0,0,4.55,4.46A4.3,4.3,0,0,0,26.71,158.71ZM16.57,99.93a4.26,4.26,0,0,0-4.34-4.44,4.34,4.34,0,0,0-4.51,4.32,4.52,4.52,0,0,0,4.39,4.49A4.37,4.37,0,0,0,16.57,99.93ZM247,95.49a4.26,4.26,0,0,0-4.33,4.45,4.38,4.38,0,0,0,4.47,4.36,4.52,4.52,0,0,0,4.38-4.5A4.35,4.35,0,0,0,247,95.49ZM74.08,58.28a4.17,4.17,0,0,0-4.49,4.24A4.41,4.41,0,0,0,74,67a4.47,4.47,0,0,0,4.39-4.35A4.26,4.26,0,0,0,74.08,58.28Zm162.88,96a4.21,4.21,0,0,0-4.47,4.3,4.28,4.28,0,0,0,4.19,4.47,4.39,4.39,0,1,0,.28-8.77Zm-51.71-96a4.26,4.26,0,0,0-4.48,4.27,4.42,4.42,0,1,0,8.84.12A4.21,4.21,0,0,0,185.25,58.28Zm19,140.67a4.34,4.34,0,1,0-4.33-4.4A4.21,4.21,0,0,0,204.28,199ZM54.79,199a4.34,4.34,0,1,0,.1-8.67,4.34,4.34,0,1,0-.1,8.67Z"/><path class="cls-1" d="M81.84,221.74c-.67-.59-1.57-.56-2.34-.86a11.91,11.91,0,0,1-7.73-11.1c0-3.36,0-6.72,0-10.08A4,4,0,0,1,74,195.86a3.89,3.89,0,0,1,5.68,3.52c.08,3.16,0,6.32,0,9.48,0,3.51,1.43,4.93,5,4.94h66.83a12.16,12.16,0,0,1,1.91.09,3.64,3.64,0,0,1,3.18,3,3.85,3.85,0,0,1-1.66,4.07c-.36.25-.81.37-1,.78Z"/><path class="cls-1" d="M129.47.05c11,.28,20.92,3.62,29.4,10.81a37.77,37.77,0,0,1,6.47,6.72,3.8,3.8,0,0,1-.87,5.5,3.69,3.69,0,0,1-4.83-.36c-.86-.83-1.6-1.79-2.42-2.66a37.73,37.73,0,0,0-52.38-2.91c-1.94,1.64-3.53,3.59-5.3,5.37a3.78,3.78,0,0,1-6-.33,4,4,0,0,1,.33-5.08,46.55,46.55,0,0,1,29-16.59c1.11-.17,2.22-.26,3.33-.44A21.61,21.61,0,0,1,129.47.05Z"/><path class="cls-1" d="M130.36,25.85a21.68,21.68,0,0,0-17.49,7.73c-1.17,1.33-2.51,2.28-4.39,1.78a3.9,3.9,0,0,1-2.93-3.16,3.53,3.53,0,0,1,.86-3.13c6.93-8.25,15.73-12.08,26.5-10.93a28.39,28.39,0,0,1,19.52,10.77,3.89,3.89,0,0,1-.32,5.58,3.72,3.72,0,0,1-5.46-.35,32.53,32.53,0,0,0-4.41-4.21A19.92,19.92,0,0,0,130.36,25.85Z"/><path class="cls-1" d="M140.16,42.65a4.1,4.1,0,0,1-2.44,3.52,3.56,3.56,0,0,1-4-.66,5.51,5.51,0,0,1-.43-.41c-2.51-2.46-5.05-2.47-7.54-.05a5.21,5.21,0,0,1-1.41,1.1,3.76,3.76,0,0,1-4.54-1.07,3.59,3.59,0,0,1-.2-4.73,12.46,12.46,0,0,1,19.16-.84A4.72,4.72,0,0,1,140.16,42.65Z"/><path class="cls-1" d="M118.78,180.89c0-.36,0-.72,0-1.08a11.16,11.16,0,0,0-2.09-7.7c-3.81-5.62-2.23-14.05,3-18.54a14.84,14.84,0,0,1,23.86,6.28,14.22,14.22,0,0,1-2.22,13.84,4.86,4.86,0,0,0-1.1,3.19c0,2.72,0,5.44,0,8.16a10.71,10.71,0,1,1-21.41.05c0-1.4,0-2.8,0-4.2ZM136.53,165a7.2,7.2,0,0,0-4.86-6.9,7,7,0,0,0-7.88,2.56,6.94,6.94,0,0,0,.24,8.48,11.67,11.67,0,0,1,2.68,8c0,2.68,0,5.36,0,8a2.79,2.79,0,0,0,5.51.61,6.79,6.79,0,0,0,.2-1.9c0-2.56.06-5.12,0-7.68a9.61,9.61,0,0,1,2.39-6.84A7.66,7.66,0,0,0,136.53,165Z"/></g></g></g></svg>