<svg xmlns="http://www.w3.org/2000/svg" xmlns:xlink="http://www.w3.org/1999/xlink" width="158.639" height="50" viewBox="0 0 158.639 50">
  <defs>
    <clipPath id="clip-path">
      <rect id="Rectangle_46" data-name="Rectangle 46" width="158.639" height="50" fill="none"/>
    </clipPath>
  </defs>
  <g id="Group_144" data-name="Group 144" transform="translate(0 0)">
    <g id="Group_143" data-name="Group 143" transform="translate(0 0)" clip-path="url(#clip-path)">
      <path id="Path_232" data-name="Path 232" d="M11.518,50a9.716,9.716,0,0,1-5.692-1.832A13.652,13.652,0,0,1,1.6,43.358,13.262,13.262,0,0,1,0,36.977V30.956a13.279,13.279,0,0,1,1.6-6.512A12.948,12.948,0,0,1,5.826,19.8a10.3,10.3,0,0,1,5.824-1.735,8.906,8.906,0,0,1,5.3,1.538,10.543,10.543,0,0,1,3.207,3.435V2.226A1.835,1.835,0,0,1,21.2.621,4.784,4.784,0,0,1,23.691,0,4.284,4.284,0,0,1,26.08.621a1.862,1.862,0,0,1,.949,1.6V47.186a2.011,2.011,0,0,1-.949,1.571,3.852,3.852,0,0,1-2.389.719,3.529,3.529,0,0,1-2.191-.719,2,2,0,0,1-.95-1.571V44.895a8.832,8.832,0,0,1-3.468,3.567A10.372,10.372,0,0,1,11.518,50m1.964-6.086a5.813,5.813,0,0,0,3.4-1.047,9.361,9.361,0,0,0,2.389-2.323,4.026,4.026,0,0,0,.883-2.062V30.956a6.565,6.565,0,0,0-.982-3.665,6.849,6.849,0,0,0-2.487-2.323,6.481,6.481,0,0,0-3.14-.819,6.135,6.135,0,0,0-3.371.983,7.136,7.136,0,0,0-2.421,2.552,6.579,6.579,0,0,0-.883,3.272v6.021a6.936,6.936,0,0,0,.883,3.337,7.083,7.083,0,0,0,2.388,2.618,5.985,5.985,0,0,0,3.338.982" transform="translate(0 0)" fill="#f2e9dc"/>
      <path id="Path_233" data-name="Path 233" d="M41.252,46.156A17.9,17.9,0,0,1,33.4,44.52a13.221,13.221,0,0,1-5.364-4.548,11.926,11.926,0,0,1-1.964-6.839V26.917a11.443,11.443,0,0,1,1.866-6.349,13.947,13.947,0,0,1,4.94-4.614,13.614,13.614,0,0,1,6.806-1.734,13.783,13.783,0,0,1,6.478,1.538,12.473,12.473,0,0,1,4.746,4.286,11.214,11.214,0,0,1,1.8,6.283,6.906,6.906,0,0,1-.851,3.926,3.471,3.471,0,0,1-2.226,1.441,15.406,15.406,0,0,1-2.88.262H32.941v1.5a6.334,6.334,0,0,0,2.388,5.2,9.416,9.416,0,0,0,6.118,1.931,9.078,9.078,0,0,0,3.732-.654A24.663,24.663,0,0,0,47.6,38.7a3.6,3.6,0,0,1,1.83-.589,2.087,2.087,0,0,1,1.439.525,3.671,3.671,0,0,1,.917,1.242,3.209,3.209,0,0,1,.328,1.31,3.165,3.165,0,0,1-1.343,2.16,11.019,11.019,0,0,1-3.761,2,18.116,18.116,0,0,1-5.761.817M32.941,27.7H43.8a3.3,3.3,0,0,0,1.93-.394,1.952,1.952,0,0,0,.493-1.57,6.255,6.255,0,0,0-.852-3.174,5.971,5.971,0,0,0-2.355-2.29,7.484,7.484,0,0,0-6.741-.032A6.422,6.422,0,0,0,33.857,22.4a5.651,5.651,0,0,0-.916,3.209Z" transform="translate(7.046 3.843)" fill="#f2e9dc"/>
      <path id="Path_234" data-name="Path 234" d="M67.03,50A10.2,10.2,0,0,1,61.5,48.462,9.376,9.376,0,0,1,58,44.895v2.292a2.023,2.023,0,0,1-.917,1.571,3.5,3.5,0,0,1-2.224.719,3.847,3.847,0,0,1-2.389-.719,2.008,2.008,0,0,1-.949-1.571V2.226a1.859,1.859,0,0,1,.949-1.6A4.278,4.278,0,0,1,54.858,0a4.747,4.747,0,0,1,2.519.621,1.841,1.841,0,0,1,1.015,1.6v20.81A10.53,10.53,0,0,1,61.6,19.6a8.792,8.792,0,0,1,5.235-1.538A10.473,10.473,0,0,1,72.692,19.8a12.861,12.861,0,0,1,4.254,4.647,13.292,13.292,0,0,1,1.6,6.512v6.021a13.276,13.276,0,0,1-1.6,6.381,13.69,13.69,0,0,1-4.222,4.811A9.723,9.723,0,0,1,67.03,50m-1.963-6.086a5.88,5.88,0,0,0,3.272-.982,7.353,7.353,0,0,0,2.42-2.618,6.735,6.735,0,0,0,.917-3.337V30.956a6.391,6.391,0,0,0-.917-3.272,7.522,7.522,0,0,0-2.42-2.552A5.982,5.982,0,0,0,65,24.148a6.474,6.474,0,0,0-3.14.819,6.83,6.83,0,0,0-2.487,2.323,6.555,6.555,0,0,0-.982,3.665v7.526a4.026,4.026,0,0,0,.883,2.062,9.355,9.355,0,0,0,2.388,2.323,5.814,5.814,0,0,0,3.4,1.047" transform="translate(13.925 0)" fill="#f2e9dc"/>
      <path id="Path_235" data-name="Path 235" d="M91.9,49.522a18.65,18.65,0,0,1-7.463-1.441,11.216,11.216,0,0,1-5.268-4.647,16.381,16.381,0,0,1-1.931-8.508V15.882a16.387,16.387,0,0,1,1.931-8.508A11.238,11.238,0,0,1,84.41,2.729,18.572,18.572,0,0,1,91.9,1.288,18.876,18.876,0,0,1,99.4,2.729a11.19,11.19,0,0,1,5.3,4.645,16.387,16.387,0,0,1,1.932,8.508V34.927a16.381,16.381,0,0,1-1.932,8.508,11.2,11.2,0,0,1-5.268,4.647A18.811,18.811,0,0,1,91.9,49.522m0-6.153a7.744,7.744,0,0,0,5.725-2.06q2.062-2.062,2.062-6.382V15.882q0-4.32-2.062-6.381A7.739,7.739,0,0,0,91.9,7.44,7.621,7.621,0,0,0,86.21,9.5q-2.031,2.062-2.03,6.381V34.927q0,4.32,2.03,6.382a7.625,7.625,0,0,0,5.695,2.06" transform="translate(20.878 0.348)" fill="#f2e9dc"/>
      <path id="Path_236" data-name="Path 236" d="M108.44,46.157a4.221,4.221,0,0,1-1.8-.492,6.085,6.085,0,0,1-1.767-1.275,2.356,2.356,0,0,1-.752-1.636,2.209,2.209,0,0,1,.391-1.244l8.116-11.649-7.656-10.994a1.519,1.519,0,0,1-.328-.525,1.715,1.715,0,0,1-.132-.654,2.355,2.355,0,0,1,.753-1.636,6.48,6.48,0,0,1,1.8-1.308,4.3,4.3,0,0,1,1.9-.525,3.738,3.738,0,0,1,.851.131,1.4,1.4,0,0,1,.851.655l6.609,10.471L123.95,15.07a1.552,1.552,0,0,1,.818-.687,2.985,2.985,0,0,1,.95-.164,4.43,4.43,0,0,1,1.832.492,5.707,5.707,0,0,1,1.8,1.308,2.48,2.48,0,0,1,.753,1.669,2.125,2.125,0,0,1-.459,1.179l-7.722,11.059,8.115,11.584a1.571,1.571,0,0,1,.328.523,1.947,1.947,0,0,1,.131.72,2.4,2.4,0,0,1-.72,1.537,5.85,5.85,0,0,1-1.734,1.343,4.232,4.232,0,0,1-1.931.523,3,3,0,0,1-.949-.164,1.328,1.328,0,0,1-.753-.621l-7.133-10.8-7.068,10.8a1.585,1.585,0,0,1-.818.589,2.973,2.973,0,0,1-.949.2" transform="translate(28.143 3.843)" fill="#f2e9dc"/>
      <path id="Path_237" data-name="Path 237" d="M92.5,20.8a3.04,3.04,0,1,1-3.04-3.04A3.04,3.04,0,0,1,92.5,20.8" transform="translate(23.358 4.8)" fill="#f5b700"/>
    </g>
  </g>
</svg>
