<svg xmlns="http://www.w3.org/2000/svg" viewBox="0 0 259.36 259.2"><defs><style>.cls-1{fill:aqua;}</style></defs><title>1in79R.tif</title><g id="Layer_2" data-name="Layer 2"><g id="Layer_1-2" data-name="Layer 1"><g id="_1in79R.tif" data-name="1in79R.tif"><path class="cls-1" d="M126.16,259.2a2.24,2.24,0,0,0-1.08-.47,19.25,19.25,0,0,1-10-31.15,18.46,18.46,0,0,1,9.33-6,1.67,1.67,0,0,0,1.44-2c-.08-2.64-.06-5.28,0-7.92,0-1.15-.37-1.62-1.57-1.7a79.08,79.08,0,0,1-33.43-9.81,76.45,76.45,0,0,1-14.19-10c-.8-.72-1.31-.66-2.07.11-5.62,5.69-11.29,11.33-16.95,17-2.14,2.14-2.14,2.14-.61,4.78,4.76,8.26,3.72,19.37-2.55,27a23.47,23.47,0,0,1-18.47,9,23.64,23.64,0,0,1-19.8-9.71,23.07,23.07,0,0,1-5-13.76,23.79,23.79,0,0,1,8.21-19.08,23.84,23.84,0,0,1,18.85-6.06,21.73,21.73,0,0,1,10.29,3.66c1,.68,1.55.58,2.4-.31,2.64-2.78,5.43-5.41,8.14-8.13,2.57-2.57,5.11-5.18,7.67-7.77.78-.79,1.56-1.6,2.39-2.34s.58-1.19,0-1.82a66.87,66.87,0,0,1-5.5-6.95,79.75,79.75,0,0,1-11.55-24.25,75.9,75.9,0,0,1-2.86-16.73c0-.8-.37-1.16-1.17-1.16-3,0-6,0-9,0-.9,0-1.15.54-1.35,1.23a18.42,18.42,0,0,1-4,7.31c-4.43,5-10,7.33-16.62,6.51-8.11-1-13.68-5.61-16.25-13.4A19.13,19.13,0,0,1,15.5,110.75a19.11,19.11,0,0,1,22.2,13.3c.37,1.22.89,1.76,2.24,1.7,2.64-.11,5.28-.06,7.92,0,1,0,1.41-.37,1.47-1.39a79.44,79.44,0,0,1,15.18-42,45.7,45.7,0,0,1,4.59-5.69,1.33,1.33,0,0,0,0-2.21c-3.32-3.28-6.62-6.6-9.93-9.91-2.77-2.76-5.58-5.49-8.31-8.3a1.29,1.29,0,0,0-1.93-.29c-11.3,7.1-25.24,4.51-33-6.24a24,24,0,0,1,2.25-31,24.28,24.28,0,0,1,10.27-6.4,4.08,4.08,0,0,1,5.22,1.95,3.82,3.82,0,0,1-2.25,5.29,20.87,20.87,0,0,0-5.92,3.08c-5.1,4.24-7.18,9.67-5.95,16.13A15.72,15.72,0,0,0,30.3,51.1,16.5,16.5,0,0,0,45.45,22.21c-2.08-1.57-2.72-3.1-2.07-4.88a3.87,3.87,0,0,1,6.08-1.89,22.64,22.64,0,0,1,8.47,10.19,23.82,23.82,0,0,1-1.87,23.13c-.42.67-.51,1.17.11,1.78l18.4,18.25c1.1,1.1,1.1,1.09,2.3,0A79.58,79.58,0,0,1,104.49,53a76.7,76.7,0,0,1,20.06-3.87c1-.06,1.34-.49,1.33-1.43,0-2.8,0-5.6,0-8.4a1.51,1.51,0,0,0-1.31-1.68,18.63,18.63,0,0,1-7.52-4.09c-4.9-4.44-7.23-10-6.41-16.54,1-8.17,5.7-13.61,13.49-16.33.68-.23,1.46-.16,2-.7h7.2c.53.52,1.26.46,1.9.66A19.29,19.29,0,0,1,148.93,21a18.56,18.56,0,0,1-6.46,12.6,18.68,18.68,0,0,1-7.51,4.1c-.81.22-1.34.55-1.33,1.54.05,2.83,0,5.67,0,8.51,0,1,.44,1.4,1.44,1.45a76.88,76.88,0,0,1,14.53,2.3,79.57,79.57,0,0,1,24.74,11A71.06,71.06,0,0,1,182.81,69c.48.43.94,1.06,1.71.3,1.68-1.71,3.43-3.36,5.12-5,4.44-4.43,8.84-8.91,13.32-13.3.85-.82,1-1.37.34-2.41a23.36,23.36,0,0,1-3.64-16,23.35,23.35,0,0,1,6.06-13.19,23.78,23.78,0,0,1,19-8.15A23.28,23.28,0,0,1,242,19.3a23.59,23.59,0,0,1,5.7,21.18A23.53,23.53,0,0,1,239,54.56a23.8,23.8,0,0,1-19.61,4.87,22.59,22.59,0,0,1-8.82-3.56c-.55-.36-1-.53-1.58.05q-9.28,9.38-18.64,18.69c-.74.74-.61,1.23,0,1.89A56.09,56.09,0,0,1,195,82.28a79.68,79.68,0,0,1,15.19,42.06c.06,1,.43,1.41,1.46,1.4,2.71,0,5.44-.07,8.15,0a1.67,1.67,0,0,0,1.94-1.45,19.25,19.25,0,0,1,20.72-13.8c8.27,1.16,13.67,5.92,16.29,13.84.19.57.14,1.21.61,1.67v7.2a2.24,2.24,0,0,0-.47,1.08,19.25,19.25,0,0,1-27,12.64,19,19,0,0,1-10.06-11.79c-.23-.72-.35-1.49-1.41-1.47-3,0-6,0-9,0-.8,0-1.14.34-1.18,1.15a76.55,76.55,0,0,1-2.32,14.65,79.67,79.67,0,0,1-17.34,33c-1,1.21-1.07,1.2,0,2.3q9.19,9.22,18.37,18.45a1,1,0,0,0,1.46.16,24.15,24.15,0,0,1,16-4,19.59,19.59,0,0,1,6.59,1.68,3.84,3.84,0,0,1,1,6.4,3.7,3.7,0,0,1-4,.78,16.78,16.78,0,0,0-10.48-.54,16.47,16.47,0,0,0-11.11,21.44c2.5,6.74,7.55,10.38,14.65,11a16.54,16.54,0,0,0,16.69-21.26c-.75-2.53.28-4.79,2.39-5.39,2.4-.68,4.41.54,5.17,3.17a23.2,23.2,0,0,1,1.07,6.49,24.36,24.36,0,0,1-5.7,16.05,24.35,24.35,0,0,1-42.67-20,22.29,22.29,0,0,1,3.61-8.93,1.1,1.1,0,0,0-.2-1.67c-1.78-1.55-3.31-3.36-5-5-4.6-4.38-9-9-13.51-13.45-.78-.77-1.27-.64-2,0a75.93,75.93,0,0,1-14.19,10A79.08,79.08,0,0,1,135.2,210c-1.2.08-1.59.55-1.57,1.7.05,2.6.08,5.2,0,7.8a1.81,1.81,0,0,0,1.55,2.11,18.44,18.44,0,0,1,9.14,5.88,19.22,19.22,0,0,1-6.05,29.83c-1.58.79-3.34,1.06-4.9,1.87Zm3.63-202.33c-40-.14-72.7,32.59-72.79,72.55a72.76,72.76,0,1,0,145.51.29C202.58,89.56,169.84,56.75,129.79,56.87ZM52.2,223.65a16.53,16.53,0,1,0-16.44,16.57A16.62,16.62,0,0,0,52.2,223.65ZM207.32,35.53A16.53,16.53,0,1,0,223.88,19,16.63,16.63,0,0,0,207.32,35.53ZM30.64,129.67c0-6.23-5-11.55-11.11-11.5a11.43,11.43,0,1,0,11.11,11.5Zm198.24-.14A11.32,11.32,0,0,0,240.11,141a11.43,11.43,0,1,0,0-22.86A11.31,11.31,0,0,0,228.88,129.53Zm-99,99.19a11.34,11.34,0,0,0-11.5,11.22,11.43,11.43,0,1,0,11.5-11.22Zm-.14-198.24a11.38,11.38,0,1,0-11.37-11.36A11.34,11.34,0,0,0,129.69,30.48Z"/><path class="cls-1" d="M129.66,133.66c-7.48,0-15,.14-22.44,0A16.54,16.54,0,0,0,91,147.08a6.83,6.83,0,0,0-.1,1.19q0,9.66-.09,19.32c0,.63.26.89.84.89h11.75c.76,0,.93-.46.93-1.11q0-2.28,0-4.56c0-2.58,1.65-4.4,3.92-4.42s3.92,1.8,4,4.36c0,1.4,0,2.8,0,4.2s.08,1.53,1.59,1.54c2.12,0,4.24,0,6.36,0a4.35,4.35,0,0,1,4.23,2.41,3.87,3.87,0,0,1-3,5.45,9.71,9.71,0,0,1-1.32.05H87.63c-3.3,0-4.7-1.38-4.7-4.64,0-7.16.08-14.32,0-21.47a24.57,24.57,0,0,1,17.57-23.7,25.27,25.27,0,0,1,7.59-.91c.38,0,.9.16,1.09-.27s-.3-.7-.56-1a29.24,29.24,0,0,1-.89-39.95,28.93,28.93,0,0,1,16.44-9.42,29.45,29.45,0,0,1,32.29,16.47c4.15,9.08,3.78,18.06-1,26.85a26.18,26.18,0,0,1-4.61,6.11c-.24.25-.66.49-.51.87s.69.32,1.06.31a23.18,23.18,0,0,1,13.89,3.8c6.88,4.59,10.95,11,11.22,19.33.25,7.83.08,15.68.06,23.52a3.79,3.79,0,0,1-4.05,4.06q-16.86,0-33.72,0a3.93,3.93,0,0,1-4-3.35,3.86,3.86,0,0,1,3.22-4.36c2.29-.47,4.63-.16,6.94-.2s2.36,0,2.36-2.34c0-1.08,0-2.16,0-3.24,0-2.69,1.61-4.52,3.93-4.54s3.95,1.83,4,4.49c0,1.44,0,2.88,0,4.32,0,.9.28,1.32,1.24,1.31,3.71,0,7.43,0,11.15,0,.8,0,1.12-.24,1.11-1.11,0-6.12,0-12.24-.05-18.36,0-6.65-5.44-13.29-11.92-14.88a17.6,17.6,0,0,0-4.27-.49Zm.09-8.12c11.13.44,21.64-9.12,21.62-21.47a21.61,21.61,0,0,0-43.22,0C108.12,116.29,118.5,126,129.75,125.54Z"/></g></g></g></svg>