<svg xmlns="http://www.w3.org/2000/svg" preserveAspectRatio="xMinYMin meet" viewBox="0 0 350 566"><defs><linearGradient  x1="100%" y1="100%" x2="20%" y2="20%" id="g0"><stop stop-color="hsl(360, 0%, 0%)" stop-opacity="1" offset="10%"/><stop stop-color="hsl(3, 75%, 38%)" stop-opacity="1" offset="90%"/></linearGradient></defs><style> .base {fill: #ededed;font-family:Montserrat,arial,sans-serif;font-size:30px;font-weight:400;} .series {text-transform: uppercase} .logo {font-size:200px;font-weight:100;} .meta {font-size:12px;} .small {font-size:8px;} .burn {font-weight:500;font-size:16px;} }</style><g><rect width="100%" height="100%" fill="url(#g0)" rx="10px" ry="10px" stroke-linejoin="round" /><rect width="94%" height="96%" fill="transparent" rx="10px" ry="10px" stroke-linejoin="round" x="3%" y="2%" stroke-dasharray="1,6" stroke="white" /></g><path fill="#ededed" d="M122.7,227.1 l-4.8,0l55.8,-74l0,3.2l-51.8,-69.2l5,0l48.8,65.4l-1.2,0l48.8,-65.4l4.8,0l-51.2,68.4l0,-1.6l55.2,73.2l-5,0l-52.8,-70.2l1.2,0l-52.8,70.2z" vector-effect="non-scaling-stroke" /><g><path stroke="#ededed" fill="none" transform="translate(265,418)" d="m 0 0 L -20 -30 L -12.5 -38.5 l 6.5 7 L 0 -38.5 L 6.56 -31.32 L 12.5 -38.5 L 20 -30 L 0 0 L -7.345 -29.955 L 0 -38.5 L 7.67 -30.04 L 0 0 Z M 0 0 L -20.055 -29.955 l 7.555 -8.545 l 24.965 -0.015 L 20 -30 L -20.055 -29.955"/></g><text x="50%" y="5%" class="base small" dominant-baseline="middle" text-anchor="middle">XEN・0x06450dee7fd2fb8e39061434babcfc05599a6fb8</text><text x="50%" y="50%" class="base " dominant-baseline="middle" text-anchor="middle">XEN CRYPTO</text><text x="50%" y="56%" class="base burn" text-anchor="middle" dominant-baseline="middle"> </text><text x="18%" y="62%" class="base meta" dominant-baseline="middle"> #47323</text><text x="82%" y="62%" class="base meta series" dominant-baseline="middle" text-anchor="end" >Ruby      </text><text x="18%" y="68%" class="base meta" dominant-baseline="middle" >VMU: 1</text><text x="18%" y="72%" class="base meta" dominant-baseline="middle" >EAA: 0%</text><text x="18%" y="76%" class="base meta" dominant-baseline="middle" >AMP: 2754</text><text x="18%" y="80%" class="base meta" dominant-baseline="middle" >Term: 454 days</text><text x="18%" y="84%" class="base meta" dominant-baseline="middle" >cRank: 13278148</text><text x="18%" y="88%" class="base meta" dominant-baseline="middle" >Maturity: Sep 8, 2024 02:43 UTC</text><text x="50%" y="95%" class="base small" dominant-baseline="middle" text-anchor="middle" >"Music in the soul can be heard by the universe." - Lao Tzu       </text></svg>