<svg xmlns="http://www.w3.org/2000/svg" width="959.538" height="830.507" viewBox="0 0 959.538 830.507">
  <g id="Group_148" data-name="Group 148" transform="translate(-151.852 -165.578)">
    <path id="Path_230" data-name="Path 230" d="M846.659,289.874c35.546-16.536,62.549-35.186,80.438-55.584,23.279-26.545,30.573-55.558,21.68-86.235-6.9-23.779-22.15-45.389-45.339-64.231-21.343-17.343-49.5-32.436-83.691-44.86C762.217,18.058,688.623,4.983,606.918,1.148,532.445-2.345,457,2.2,394.474,13.947a893.348,893.348,0,0,0-260.8,92.42,301.476,301.476,0,0,0-83.091,66.522C28.253,198.57,12.607,225.764,5.339,251.53-6.983,295.217,2.222,342.569,30.9,383.447c1.594,2.273,4.979,5.023,8.809,4.049,3.7-.94,2.881-4.136,1.437-6.353C13.966,339.429,1.687,297.057,14.136,252.414c7.115-25.227,22.457-51.88,44.369-77.075a294.592,294.592,0,0,1,81.166-65.032A882.014,882.014,0,0,1,397.155,19.023C458.614,7.474,532.863,3.012,606.218,6.453c80.315,3.769,152.549,16.582,208.888,37.055,33.19,12.06,60.49,26.684,81.142,43.464,22.365,18.172,37.082,39.029,43.739,61.99,11.449,39.49.244,96.726-118.137,145.14-72.374,29.6-173.541,49.973-277.563,55.9-103.024,5.87-196.359-3.008-256.074-24.355-2.112-.754-4.852-.346-6.118.914s-.581,2.894,1.532,3.65c49.009,17.519,119.732,26.878,199.708,26.877,20.08,0,40.752-.59,61.8-1.789,105.481-6.009,208.177-26.715,281.761-56.807q10.283-4.206,19.764-8.616" transform="translate(155.389 169.172)" fill="#91c499" stroke="#91c499" stroke-width="7"/>
    <path id="Path_231" data-name="Path 231" d="M46.465,863.306c10.495,12.371,27.606,13.716,41.808,8.209,31.758-12.315,58.258-45.2,67.432-77.735,2.939-10.429,4.759-21.216,6.994-31.846q.67-3.189,1.4-6.355c4.145-26.493,15.861-53.009,38.632-68.937,40.873-28.589,97.45-18.725,136.175,7.938,1.618,1,3.175,1.99,4.7,2.958,7.61,4.841,14.355,9.052,23.648,9.892,11.917,1.077,24.292-.149,36.089-1.842,71.892-10.32,178.8,4.089,209.747,81.975,11.38,28.642,7.95,60.471-1.037,89.26-2.21,7.08-4.991,14.1-5.473,21.508-1.69,25.954,25.648,39.42,40.535,56.1a152.572,152.572,0,0,1,34.283,64.721,13.809,13.809,0,0,1,.495,6.4c-.679,2.889-3.031,5.034-5.315,6.914-8.086,6.653-31.479,28.154-41.376,19.091-8.032-7.355-7.664-22.292-12.865-31.437-9.222-16.218-21.944-30.169-34.825-43.5a308.692,308.692,0,0,1-38.6-48.346c-4.165-6.564-13.062-18.842-10.857-27.364,3.806-14.709,20.444-3.579,25.692,4.514,16.25,25.064,17.581,59.7,17.512,88.594-.037,15.428,1.4,30.811.5,46.288-.827,14.1-2.523,27.367-4.125,41.207a7.775,7.775,0,0,1-.847,3.2c-4.426,7.271-37.833,3.778-43.878-1.425-6.815-5.871-.168-20.03.932-27.337a150.947,150.947,0,0,0,1.959-30.484,76.52,76.52,0,0,0-5.836-26.028c-13.026-30.362-51.707-43.59-81.623-49.79-27-5.6-63.166-3.414-62.935,32.4.189,29.27,5,59.6,2.9,88.633-.13,1.8-.407,3.823-1.838,4.918-1.179.9-2.789.89-4.268.839-7.6-.26-37.042,6.775-37.332-3.9A355.126,355.126,0,0,0,338.452,1012c-4.168-21.07-8.111-42.443-3.791-63.847,3.282-16.265,11.9-32.21,26.209-40.466,5.327-3.072,13.458-4.268,16.475,1.111,2.034,3.627.4,8.172-1.516,11.861a84.545,84.545,0,0,1-31.023,32.878C333.364,960.5,321.824,960.2,310.2,964.78c-15.057,5.932-24.368,22.3-30.458,36.455a133.795,133.795,0,0,0-7.868,24.184c-1.081,4.946.21,16.454-3.034,20.292-5.08,6.012-55.361,10.2-58.454,2.543-2.281-5.7,4.864-21.836,6.658-27.543a228.875,228.875,0,0,1,9.535-25.157q.716-1.595,1.486-3.159c10.632-21.591,23.782-42.58,37.515-62.291,10.234-14.691,6.127-33.609-.18-49.521-5.61-14.154-13.7-27.169-20.087-40.987-1.184-2.561-2.252-5.035-3.2-7.447s-1.792-4.761-2.517-7.074a122.111,122.111,0,0,1-5.521-38.721c.071-2.593.24-5.18.5-7.777,6.2-62.093,62.21-98.693,118.874-66.89q3.241,1.819,6.326,3.926c12.053,9.052,24.5,20.1,25.966,35.569,1.465,13.258-8.787,22.833-18.361,30.545q-2.8,2.034-5.771,3.827a84.919,84.919,0,0,1-19.071,8.348c-2.2,1.473-2.929,4.419-3.89,7.358a50.7,50.7,0,0,0-.848,5.5c-.827,7.488-1.112,15.093-4.988,21.41-18.966,30.916-61.679,5.062-89.316,6.4-11.57.559-23.572-.666-34.644,3.547-8.221,3.129-15.425,8.446-22.233,14.039-10.134,8.326-20.23,18.478-22.059,31.511-.364,2.593.015,5.88,2.44,6.834a5.813,5.813,0,0,0,3.439-.029c12.794-3.016,21.633-14.705,27.7-26.427,4.062-7.844,13.042-27.109,1.027-30.035-9.354-2.279-16.54,7.271-21.723,13.342-21.672,25.389-52.449,47.041-85.545,43.639a66.967,66.967,0,0,1-31.065-11.471c-23.291-16.092-31.318-54.486-18.177-78.78,8.757-16.188,62.533-75.505,20.875-144.091" transform="translate(131.031 -99.78)" fill="none" stroke="#91c499" stroke-linecap="round" stroke-linejoin="round" stroke-width="14"/>
  </g>
</svg>
