<svg xmlns="http://www.w3.org/2000/svg" xmlns:xlink="http://www.w3.org/1999/xlink" width="117.291" height="36.968" viewBox="0 0 117.291 36.968">
  <defs>
    <clipPath id="clip-path">
      <rect id="Rectangle_47" data-name="Rectangle 47" width="117.291" height="36.968" fill="#91c499"/>
    </clipPath>
  </defs>
  <g id="Group_147" data-name="Group 147" transform="translate(0 0)">
    <g id="Group_145" data-name="Group 145" transform="translate(0 0)" clip-path="url(#clip-path)">
      <path id="Path_238" data-name="Path 238" d="M8.516,36.968a7.184,7.184,0,0,1-4.209-1.354,10.094,10.094,0,0,1-3.122-3.557A9.806,9.806,0,0,1,0,27.339V22.887a9.818,9.818,0,0,1,1.185-4.814,9.573,9.573,0,0,1,3.122-3.436,7.619,7.619,0,0,1,4.306-1.283,6.585,6.585,0,0,1,3.918,1.137,7.8,7.8,0,0,1,2.371,2.54V1.645A1.356,1.356,0,0,1,15.677.459,3.537,3.537,0,0,1,17.516,0a3.167,3.167,0,0,1,1.767.459,1.376,1.376,0,0,1,.7,1.186V34.887a1.487,1.487,0,0,1-.7,1.162,2.848,2.848,0,0,1-1.767.532,2.609,2.609,0,0,1-1.62-.532,1.481,1.481,0,0,1-.7-1.162V33.193a6.53,6.53,0,0,1-2.564,2.637,7.669,7.669,0,0,1-4.114,1.137m1.452-4.5a4.3,4.3,0,0,0,2.516-.774,6.921,6.921,0,0,0,1.767-1.718,2.977,2.977,0,0,0,.653-1.524V22.887a4.854,4.854,0,0,0-.726-2.71,5.064,5.064,0,0,0-1.839-1.718,4.792,4.792,0,0,0-2.322-.606,4.536,4.536,0,0,0-2.493.727,5.276,5.276,0,0,0-1.79,1.887,4.864,4.864,0,0,0-.653,2.419v4.452a5.128,5.128,0,0,0,.653,2.467A5.237,5.237,0,0,0,7.5,31.742a4.425,4.425,0,0,0,2.468.726" transform="translate(0 0)" fill="#91c499"/>
      <path id="Path_239" data-name="Path 239" d="M37.294,37.832a13.236,13.236,0,0,1-5.807-1.21,9.775,9.775,0,0,1-3.966-3.362A8.817,8.817,0,0,1,26.069,28.2v-4.6a8.46,8.46,0,0,1,1.38-4.694A10.311,10.311,0,0,1,31.1,15.5a10.066,10.066,0,0,1,5.032-1.282,10.191,10.191,0,0,1,4.79,1.137,9.222,9.222,0,0,1,3.509,3.169,8.291,8.291,0,0,1,1.331,4.645,5.106,5.106,0,0,1-.629,2.9,2.567,2.567,0,0,1-1.645,1.065,11.391,11.391,0,0,1-2.129.193H31.15v1.112a4.683,4.683,0,0,0,1.766,3.847,6.962,6.962,0,0,0,4.523,1.428,6.712,6.712,0,0,0,2.759-.484,18.235,18.235,0,0,0,1.791-.919,2.658,2.658,0,0,1,1.353-.436,1.543,1.543,0,0,1,1.064.388,2.714,2.714,0,0,1,.678.919,2.372,2.372,0,0,1,.242.968,2.34,2.34,0,0,1-.993,1.6,8.147,8.147,0,0,1-2.781,1.476,13.394,13.394,0,0,1-4.259.6M31.15,24.188h8.032a2.44,2.44,0,0,0,1.427-.291,1.444,1.444,0,0,0,.364-1.161,4.625,4.625,0,0,0-.63-2.347A4.415,4.415,0,0,0,38.6,18.7a5.533,5.533,0,0,0-4.984-.023,4.748,4.748,0,0,0-1.79,1.6,4.178,4.178,0,0,0-.677,2.372Z" transform="translate(-1.585 -0.865)" fill="#91c499"/>
      <path id="Path_240" data-name="Path 240" d="M62.988,36.968A7.544,7.544,0,0,1,58.9,35.83a6.932,6.932,0,0,1-2.587-2.637v1.694a1.5,1.5,0,0,1-.678,1.162,2.587,2.587,0,0,1-1.645.532,2.844,2.844,0,0,1-1.767-.532,1.484,1.484,0,0,1-.7-1.162V1.645a1.374,1.374,0,0,1,.7-1.186A3.163,3.163,0,0,1,53.988,0a3.51,3.51,0,0,1,1.862.459,1.361,1.361,0,0,1,.75,1.186V17.031a7.785,7.785,0,0,1,2.371-2.54,6.5,6.5,0,0,1,3.87-1.137,7.743,7.743,0,0,1,4.331,1.283,9.508,9.508,0,0,1,3.145,3.436A9.828,9.828,0,0,1,71.5,22.887v4.452a9.816,9.816,0,0,1-1.185,4.718A10.122,10.122,0,0,1,67.2,35.613a7.189,7.189,0,0,1-4.209,1.354m-1.451-4.5a4.347,4.347,0,0,0,2.419-.726,5.437,5.437,0,0,0,1.789-1.936,4.98,4.98,0,0,0,.678-2.467V22.887a4.725,4.725,0,0,0-.678-2.419,5.562,5.562,0,0,0-1.789-1.887,4.423,4.423,0,0,0-2.468-.727,4.787,4.787,0,0,0-2.322.606,5.049,5.049,0,0,0-1.839,1.718,4.846,4.846,0,0,0-.726,2.71v5.565a2.977,2.977,0,0,0,.653,1.524,6.917,6.917,0,0,0,1.766,1.718,4.3,4.3,0,0,0,2.517.774" transform="translate(-3.133 0)" fill="#91c499"/>
      <path id="Path_241" data-name="Path 241" d="M88.083,36.95a13.789,13.789,0,0,1-5.518-1.065,8.293,8.293,0,0,1-3.895-3.436,12.112,12.112,0,0,1-1.428-6.291V12.078a12.116,12.116,0,0,1,1.428-6.291,8.309,8.309,0,0,1,3.871-3.435,13.731,13.731,0,0,1,5.541-1.065,13.956,13.956,0,0,1,5.538,1.065,8.274,8.274,0,0,1,3.919,3.435,12.116,12.116,0,0,1,1.429,6.291v14.08a12.111,12.111,0,0,1-1.429,6.291,8.284,8.284,0,0,1-3.895,3.436,13.908,13.908,0,0,1-5.563,1.065m0-4.549a5.725,5.725,0,0,0,4.233-1.523,6.432,6.432,0,0,0,1.524-4.719V12.078a6.43,6.43,0,0,0-1.524-4.718,5.722,5.722,0,0,0-4.233-1.524,5.634,5.634,0,0,0-4.21,1.524,6.491,6.491,0,0,0-1.5,4.718v14.08a6.493,6.493,0,0,0,1.5,4.719,5.637,5.637,0,0,0,4.21,1.523" transform="translate(-4.697 -0.079)" fill="#91c499"/>
      <path id="Path_242" data-name="Path 242" d="M107.314,37.832a3.121,3.121,0,0,1-1.331-.363,4.5,4.5,0,0,1-1.306-.943,1.742,1.742,0,0,1-.556-1.21,1.633,1.633,0,0,1,.289-.919l6-8.612-5.661-8.129a1.123,1.123,0,0,1-.242-.388,1.268,1.268,0,0,1-.1-.484,1.741,1.741,0,0,1,.557-1.21,4.791,4.791,0,0,1,1.331-.967,3.183,3.183,0,0,1,1.4-.388,2.764,2.764,0,0,1,.629.1,1.034,1.034,0,0,1,.629.485l4.887,7.742,4.935-7.694a1.147,1.147,0,0,1,.6-.508,2.207,2.207,0,0,1,.7-.121,3.275,3.275,0,0,1,1.354.363,4.219,4.219,0,0,1,1.33.967,1.834,1.834,0,0,1,.557,1.234,1.571,1.571,0,0,1-.339.872l-5.709,8.177,6,8.565a1.162,1.162,0,0,1,.242.387,1.44,1.44,0,0,1,.1.533,1.776,1.776,0,0,1-.533,1.136,4.325,4.325,0,0,1-1.282.993,3.129,3.129,0,0,1-1.428.387,2.215,2.215,0,0,1-.7-.121.982.982,0,0,1-.557-.459l-5.274-7.984-5.226,7.984a1.172,1.172,0,0,1-.6.436,2.2,2.2,0,0,1-.7.145" transform="translate(-6.331 -0.865)" fill="#91c499"/>
      <path id="Path_243" data-name="Path 243" d="M90.912,20.007a2.248,2.248,0,1,1-2.248-2.247,2.248,2.248,0,0,1,2.248,2.247" transform="translate(-5.254 -1.08)" fill="#91c499"/>
    </g>
  </g>
</svg>
