<svg xmlns="http://www.w3.org/2000/svg" xmlns:xlink="http://www.w3.org/1999/xlink" width="467.047" height="350.836" viewBox="0 0 467.047 350.836">
  <defs>
    <clipPath id="clip-path">
      <rect id="Rectangle_27" data-name="Rectangle 27" width="212.966" height="282.155" fill="none"/>
    </clipPath>
  </defs>
  <g id="Group_118" data-name="Group 118" transform="translate(-1368.709 -678.002)">
    <g id="Group_117" data-name="Group 117" transform="translate(1651.322 678.002) rotate(30)">
      <g id="Group_116" data-name="Group 116" clip-path="url(#clip-path)">
        <path id="Path_177" data-name="Path 177" d="M131.823,146.631a6.184,6.184,0,0,0,7.932-4.346,91.769,91.769,0,0,0,2.713-22.208,92.62,92.62,0,0,0-.768-11.9,6.2,6.2,0,0,0-7.389-5.265l-.006,0a6.182,6.182,0,0,0-4.889,6.86,80.076,80.076,0,0,1,.664,10.3,79.391,79.391,0,0,1-2.327,19.138,6.2,6.2,0,0,0,4.064,7.414Z" fill="#78c3fb"/>
        <path id="Path_178" data-name="Path 178" d="M50.888,282.155a162.1,162.1,0,0,0,139.2-79.008,6.21,6.21,0,0,0-2.325-8.659l-.006,0a6.168,6.168,0,0,0-8.248,2.214A149.929,149.929,0,0,1,8.02,263.541a6.209,6.209,0,0,0-7.68,3.906l0,.007a6.175,6.175,0,0,0,4.03,7.925,162.05,162.05,0,0,0,46.52,6.776" fill="#809bce"/>
        <path id="Path_179" data-name="Path 179" d="M192.7,184.591a6.181,6.181,0,0,0,8.283-3.246,160.824,160.824,0,0,0,11.98-61.268A162.019,162.019,0,0,0,161.537,1.644a6.183,6.183,0,0,0-8.886.508l0,.006a6.2,6.2,0,0,0,.492,8.594,149.63,149.63,0,0,1,47.44,109.325,148.535,148.535,0,0,1-11.024,56.493,6.206,6.206,0,0,0,3.142,8.018Z" fill="#ce4760"/>
        <path id="Path_180" data-name="Path 180" d="M63.854,251.963a6.21,6.21,0,0,0,7.1,5.524,138.918,138.918,0,0,0,117.82-120.981,6.192,6.192,0,0,0-12.286-1.559,125.9,125.9,0,0,1-107.416,110.3A6.165,6.165,0,0,0,63.854,251.963Z" fill="#78c3fb"/>
        <path id="Path_181" data-name="Path 181" d="M183.4,120.077h.006a6.212,6.212,0,0,0,6.183-6.537,139.175,139.175,0,0,0-3.3-24.356,6.212,6.212,0,0,0-7.709-4.649h0a6.166,6.166,0,0,0-4.392,7.279,126.835,126.835,0,0,1,3.037,22.418,6.164,6.164,0,0,0,6.179,5.844" fill="#809bce"/>
        <path id="Path_182" data-name="Path 182" d="M132.207,193.048a6.2,6.2,0,0,0,8.978-.737,115.407,115.407,0,0,0,25.334-72.234c0-29.806-10.722-57.59-30.329-78.951a6.209,6.209,0,0,0-9.03-.156l-.005,0a6.169,6.169,0,0,0-.146,8.468,104.447,104.447,0,0,1,4.467,135.174,6.164,6.164,0,0,0,.728,8.428Z" fill="#809bce"/>
      </g>
    </g>
    <path id="send-outline" d="M144.172,71.576,5.865,128.615A2.537,2.537,0,0,1,2.25,126.35V89.66a2.593,2.593,0,0,1,2.109-2.547L84.54,71.894a5.182,5.182,0,0,0,0-10.182L4.359,46.491a2.593,2.593,0,0,1-2.1-2.542V7.283A2.708,2.708,0,0,1,5.87,4.69l138.3,57.371a5.181,5.181,0,0,1,0,9.514Z" transform="matrix(-0.588, -0.809, 0.809, -0.588, 1458.684, 939.107)" fill="none" stroke="#809bce" stroke-linecap="round" stroke-linejoin="round" stroke-width="10"/>
  </g>
</svg>
