<svg id="token" xmlns="http://www.w3.org/2000/svg" width="55.014" height="74.075" viewBox="0 0 55.014 74.075">
  <path id="Path_203" data-name="Path 203" d="M187.854,47.729a1.159,1.159,0,1,0-.267-2.284A1.159,1.159,0,0,0,187.854,47.729Z" transform="translate(-169.221 -38.842)" fill="#d64933"/>
  <path id="Path_204" data-name="Path 204" d="M174.539,45.784c0-3.98-7.351-6.063-14.612-6.063a37.079,37.079,0,0,0-3.82.194,1.157,1.157,0,1,0,.239,2.3,30.856,30.856,0,0,1,12.7,1.185c2.347.856,3.18,1.818,3.18,2.381s-.833,1.526-3.18,2.381a31.067,31.067,0,0,1-18.235,0c-2.347-.856-3.18-1.818-3.18-2.381,0-.385.359-.85,1.011-1.308a1.157,1.157,0,1,0-1.331-1.894,3.934,3.934,0,0,0-1.995,3.2C145.314,53.833,174.539,53.862,174.539,45.784Z" transform="translate(-133.821 -33.974)" fill="#d64933"/>
  <path id="Path_205" data-name="Path 205" d="M119.275,36.715a1.157,1.157,0,0,0-1.851,1.39,5.2,5.2,0,0,1,1.151,3.137c0,3.761-4.79,7.095-11.511,8.618,3.516-1.78,6.818-4.679,6.818-8.618,0-7.7.048-7.476-.144-8.4a1.157,1.157,0,1,0-2.266.474C112.65,38.953,103,43.729,91.981,43.729c-5.724,0-11.073-1.274-14.734-3.314,14.107,4.107,32.43-1.035,32.43-10.385V25.85c2.732-2,4.2-4.436,4.2-7.032V11.81c0-10.733-23.609-15.488-37.1-8.562-4.323,2.22-6.7,5.261-6.7,8.562v4.183c-2.753,2.019-4.2,4.439-4.2,7.03V30.03c0,2.6,1.473,5.03,4.2,7.032,0,4.249-.249,5.6.984,7.76a7.134,7.134,0,0,0-.984,3.569V62.266c0,10.733,23.609,15.488,37.1,8.562,4.323-2.22,6.7-5.261,6.7-8.562V56.961c3.611-1.784,7.008-4.713,7.008-8.71V41.243a7.457,7.457,0,0,0-1.615-4.527ZM111.567,39.6v1.641c0,5.146-8.969,9.494-19.586,9.494-8.468,0-15.887-2.766-18.544-6.5a1.156,1.156,0,0,0-.107-.156c-1.085-1.615-.935-2.658-.935-4.482C80.289,48.132,103.585,48.192,111.567,39.6Zm0-20.784c0,3.4-4.026,5.693-3.7,5.471-3.591,2.416-9.436,4.023-15.89,4.023-10.617,0-19.586-4.348-19.586-9.494V17.177c8,8.6,31.22,8.557,39.171,0ZM91.981,2.315c10.617,0,19.586,4.348,19.586,9.494S102.6,21.3,91.981,21.3,72.4,16.956,72.4,11.81,81.365,2.315,91.981,2.315Zm-21.9,16.71C70.367,28.3,88.6,33.253,102.511,29.2c-3.661,2.04-9.011,3.314-14.734,3.314C74.19,32.517,63.722,25.451,70.086,19.026Zm-1.895,11V28.389c8.129,8.747,31.4,8.4,39.171,0v1.64c0,5.146-8.969,9.494-19.586,9.494S68.191,35.177,68.191,30.03ZM77.34,50.076c.764,2.746,3.25,5.227,7.078,7.044C77.429,55.653,72.4,52.246,72.4,48.391a4.565,4.565,0,0,1,.262-1.508A16.563,16.563,0,0,0,77.34,50.076ZM91.981,71.761c-10.617,0-19.586-4.348-19.586-9.494v-1.5c5,5.384,15.4,6.895,22.814,6.318a1.157,1.157,0,0,0-.18-2.308C83.308,65.688,72.4,61.114,72.4,55.4V53.757c5.107,5.5,15.918,7.065,23.928,6.214a38.375,38.375,0,0,0,14.26-1.667,13.784,13.784,0,0,1-6.348,4.448,1.157,1.157,0,1,0,.855,2.151,17.647,17.647,0,0,0,6.476-4.162v1.524c0,5.147-8.969,9.495-19.586,9.495Zm26.594-23.51c0,7.944-20.279,12.832-33.09,6.814a12.887,12.887,0,0,1-4.972-3.726A38.758,38.758,0,0,0,95.477,52.9c7.509.638,18.05-.862,23.1-6.294Z" transform="translate(-65.876 0)" fill="#d64933"/>
  <path id="Path_206" data-name="Path 206" d="M298.015,442.1a1.157,1.157,0,1,0,1.388.868A1.153,1.153,0,0,0,298.015,442.1Z" transform="translate(-263.658 -378.109)" fill="#d64933"/>
</svg>
