<?xml version="1.0" encoding="UTF-8"?><svg id="Layer_2" xmlns="http://www.w3.org/2000/svg" viewBox="0 0 222.48 57.01"><defs><style>.cls-1{fill:#fff;}.cls-2{fill:#f5b700;}</style></defs><g id="Layer_1-2"><g><g><path class="cls-1" d="M.51,55.98c-.34,0-.51-.17-.51-.51V.51C0,.17,.17,0,.51,0H14.87c8.43,0,14.74,1.98,18.93,5.94,4.19,3.96,6.28,10.04,6.28,18.25v6.58c0,8.6-2.09,14.96-6.28,19.06-4.19,4.1-10.5,6.15-18.93,6.15H.51Zm3.25-3.33H14.7c7.29,0,12.72-1.75,16.28-5.26,3.56-3.5,5.34-8.99,5.34-16.45v-6.92c0-7.12-1.78-12.35-5.34-15.68-3.56-3.33-8.99-5-16.28-5H3.76V52.65Z"/><path class="cls-1" d="M54.87,55.98c-.34,0-.51-.17-.51-.51V.51c0-.34,.17-.51,.51-.51h14.7c6.15,0,10.74,1.14,13.76,3.42,3.02,2.28,4.53,5.73,4.53,10.34,0,3.3-.81,6.02-2.44,8.16-1.62,2.14-4.15,3.72-7.57,4.74v.09c3.93,.68,7.01,2.15,9.23,4.4,2.22,2.25,3.33,5.37,3.33,9.36,0,5.3-1.64,9.2-4.92,11.71-3.28,2.51-8.53,3.76-15.77,3.76h-14.87Zm3.25-30.51h12.99c4.1,0,7.29-1.01,9.57-3.03,2.28-2.02,3.42-4.77,3.42-8.25,0-3.82-1.21-6.58-3.63-8.29-2.42-1.71-6.23-2.57-11.41-2.57h-10.94V25.47Zm0,27.1h11.54c6.1,0,10.46-.97,13.08-2.91,2.62-1.94,3.93-5.04,3.93-9.32,0-3.87-1.35-6.79-4.06-8.76-2.71-1.97-6.48-2.95-11.32-2.95h-13.16v23.93Z"/><path class="cls-1" d="M95.9,55.98c-.23,0-.36-.06-.38-.17-.03-.11-.01-.26,.04-.43l19.74-28.21L96.75,.6c-.17-.17-.21-.31-.13-.43,.09-.11,.21-.17,.38-.17h3.42c.28,0,.48,.09,.6,.26l11.71,16.75c.8,1.2,1.64,2.42,2.52,3.68,.88,1.25,1.72,2.48,2.52,3.67h.08c.85-1.25,1.72-2.51,2.61-3.76,.88-1.25,1.75-2.51,2.61-3.76L134.62,.26c.11-.17,.31-.26,.6-.26h3.33c.23,0,.36,.06,.38,.17,.03,.12,.01,.26-.04,.43l-18.63,26.67,19.66,28.12c.11,.17,.14,.31,.09,.43-.06,.11-.2,.17-.43,.17h-3.42c-.23,0-.43-.09-.6-.26l-11.37-16.41c-1.08-1.54-2.17-3.08-3.25-4.62-1.08-1.54-2.14-3.08-3.16-4.62h-.09c-1.02,1.48-2.07,2.98-3.12,4.49-1.05,1.51-2.09,3.01-3.12,4.49l-11.62,16.58c-.12,.23-.29,.34-.51,.34h-3.42Z"/><path class="cls-1" d="M160.86,57.01c-5.24,.06-9.26-1.21-12.05-3.8-2.79-2.59-4.19-6.34-4.19-11.24v-12.05c0-5.3,1.37-9.32,4.1-12.05s6.69-4.1,11.88-4.1,9.29,1.35,11.97,4.06c2.68,2.71,4.02,6.65,4.02,11.84v5.47c0,.34-.17,.51-.51,.51h-27.69v5.3c0,4.22,1.04,7.38,3.12,9.49,2.08,2.11,5.26,3.16,9.53,3.16,3.59,0,6.31-.7,8.16-2.09,1.85-1.4,2.78-3.35,2.78-5.85,0-.34,.17-.51,.51-.51h2.73c.34,0,.51,.14,.51,.43,.11,3.59-1.13,6.38-3.72,8.38-2.59,2-6.31,3.02-11.15,3.08Zm-12.48-24.7h24.45v-2.31c0-4.27-1.03-7.48-3.08-9.62-2.05-2.14-5.07-3.2-9.06-3.2s-7.18,1.08-9.23,3.25c-2.05,2.17-3.08,5.36-3.08,9.57v2.31Z"/><path class="cls-1" d="M190.26,55.98c-.34,0-.51-.17-.51-.51V24.62c0-1.48-.06-3.06-.17-4.74-.12-1.68-.23-3.18-.34-4.49,0-.4,.17-.6,.51-.6h2.65c.28,0,.45,.17,.51,.51,.11,.74,.21,1.61,.3,2.61,.08,1,.16,2.01,.21,3.03,.06,1.02,.09,2.02,.09,2.99v31.54c0,.34-.17,.51-.51,.51h-2.74Zm28.98,0c-.34,0-.51-.17-.51-.51V28.12c0-3.76-.73-6.52-2.18-8.29s-3.69-2.65-6.71-2.65c-2.85,0-5.64,.85-8.38,2.56-2.74,1.71-5.64,4.22-8.72,7.52v-3.76c1.99-2.11,3.96-3.89,5.9-5.34s3.89-2.55,5.86-3.29,3.97-1.11,6.03-1.11c3.93,0,6.91,1.14,8.93,3.42,2.02,2.28,3.03,5.81,3.03,10.6v27.69c0,.34-.17,.51-.51,.51h-2.73Z"/></g><circle class="cls-2" cx="20.04" cy="27.99" r="3.52"/></g></g></svg>