<svg version="1.2" xmlns="http://www.w3.org/2000/svg" viewBox="0 0 81 20" width="81" height="20">
	<title>dbxenft-svg</title>
	<style>
		.s0 { fill: #ffffff } 
	</style>
	<g id="Group_1190">
		<g id="Group_1189">
			<path id="Path_1637" class="s0" d="m1.3 19.4q-0.1 0-0.1 0 0 0 0 0 0 0 0 0-0.1 0-0.1 0 0 0 0-0.1 0 0 0 0 0 0 0 0 0.1-0.1 0.1-0.1l6.8-9.8-6.5-9.2q0 0 0 0 0 0 0-0.1 0 0 0 0 0 0 0 0 0-0.1 0.1-0.1h1.2q0.1 0 0.1 0 0 0 0 0 0.1 0 0.1 0.1 0 0 0 0l4.1 5.8q0.4 0.6 0.9 1.3 0.4 0.6 0.8 1.3h0.1q0.4-0.7 0.9-1.3 0.4-0.7 0.9-1.3l4-5.8q0 0 0 0 0.1 0 0.1-0.1 0 0 0 0 0.1 0 0.1 0h1.2q0.1 0 0.1 0.1 0 0 0 0 0 0 0 0 0 0 0 0.1 0 0 0 0l-6.5 9.3 6.8 9.7q0 0 0.1 0.1 0 0 0 0 0 0 0 0 0 0 0 0.1-0.1 0-0.2 0h-1.2q0 0 0 0-0.1 0-0.1 0 0 0 0 0-0.1-0.1-0.1-0.1l-3.9-5.7q-0.6-0.8-1.2-1.6-0.5-0.8-1.1-1.6-0.5 0.8-1.1 1.6-0.5 0.8-1.1 1.6l-4 5.7q0 0 0 0.1 0 0-0.1 0 0 0 0 0-0.1 0-0.1 0c0 0-1.1 0-1.1 0z"/>
			<path id="Path_1638" fill-rule="evenodd" class="s0" d="m24.3 19.8q-0.5 0-1.1 0-0.6-0.1-1.1-0.3-0.5-0.1-1-0.4-0.5-0.3-1-0.6-0.3-0.4-0.6-0.9-0.3-0.4-0.5-0.9-0.2-0.5-0.3-1.1 0-0.5 0-1v-4.2q0-0.6 0-1.1 0.1-0.6 0.3-1.1 0.2-0.6 0.5-1.1 0.2-0.5 0.6-0.9 0.4-0.4 0.9-0.7 0.5-0.2 1-0.4 0.6-0.2 1.1-0.3 0.6-0.1 1.1 0 0.6-0.1 1.2 0 0.5 0.1 1.1 0.3 0.5 0.2 1 0.4 0.5 0.3 0.9 0.7 0.4 0.4 0.6 0.9 0.3 0.5 0.5 1 0.2 0.6 0.3 1.1 0 0.6 0 1.1v1.9q0 0 0 0.1 0 0 0 0-0.1 0.1-0.1 0.1 0 0-0.1 0h-9.6v1.8q0 0.5 0 0.9 0.1 0.5 0.2 0.9 0.2 0.4 0.4 0.8 0.2 0.4 0.5 0.7 0.3 0.3 0.7 0.5 0.4 0.3 0.8 0.4 0.5 0.1 0.9 0.2 0.4 0 0.9 0 0.4 0 0.7 0 0.4 0 0.8-0.1 0.3-0.1 0.7-0.3 0.3-0.1 0.6-0.3 0.3-0.2 0.5-0.4 0.1-0.2 0.3-0.5 0.1-0.3 0.2-0.6 0-0.3 0-0.6 0 0 0 0 0-0.1 0-0.1 0.1 0 0.1 0 0 0 0.1 0h1q0 0 0 0 0 0 0.1 0 0 0 0 0.1 0 0 0 0 0 0.4 0 0.8-0.1 0.4-0.3 0.8-0.1 0.4-0.4 0.7-0.3 0.4-0.6 0.6-0.4 0.3-0.9 0.5-0.4 0.2-0.9 0.4-0.5 0.1-1 0.2-0.5 0-1.1 0zm-4.3-8.6q0 0 0 0zm8.5 0v-0.8q0-0.4 0-0.9-0.1-0.4-0.2-0.8-0.1-0.5-0.4-0.9-0.2-0.4-0.5-0.7-0.3-0.3-0.6-0.5-0.4-0.3-0.8-0.4-0.4-0.1-0.9-0.2-0.4-0.1-0.8 0-0.5-0.1-0.9 0-0.4 0.1-0.8 0.2-0.4 0.1-0.8 0.4-0.4 0.2-0.7 0.5-0.3 0.3-0.5 0.7-0.2 0.4-0.4 0.9-0.1 0.4-0.2 0.9 0 0.4 0 0.9c0 0 0 0.7 0 0.7z"/>
			<path id="Path_1639" class="s0" d="m34.3 19.4q0 0-0.1 0 0 0 0 0-0.1 0-0.1-0.1 0 0 0 0v-19.1q0-0.1 0-0.1 0 0 0.1-0.1 0 0 0 0 0.1 0 0.1 0h1.7q0 0 0.1 0 0 0 0 0 0.1 0 0.1 0.1 0 0 0 0l6.7 11.4q0.8 1.2 1.4 2.3 0.7 1 1.3 2.1 0.6 1 1.2 2.1v-2.2q0-1.1 0-2.2 0-1.1 0-2.2v-11.2q0-0.1 0-0.1 0 0 0-0.1 0.1 0 0.1 0 0 0 0.1 0h0.9q0.1 0 0.1 0 0 0 0.1 0 0 0.1 0 0.1 0 0 0 0.1v19.1q0 0 0 0 0 0.1 0 0.1-0.1 0-0.1 0 0 0-0.1 0h-1.6q-0.1 0-0.1 0 0 0-0.1 0 0 0 0 0 0-0.1 0-0.1l-6.6-11q-0.7-1.1-1.4-2.3-0.6-1.1-1.3-2.3-0.7-1.1-1.4-2.2v17.8q0 0.1-0.1 0.1z"/>
			<path id="Path_1640" class="s0" d="m54 19.4q0 0 0 0-0.1 0-0.1 0 0 0 0-0.1 0 0 0 0v-19.1q0-0.1 0-0.1 0 0 0-0.1 0 0 0.1 0 0 0 0 0h10.4q0.1 0 0.1 0 0 0 0.1 0 0 0.1 0 0.1 0 0 0 0.1v0.8q0 0.1 0 0.1 0 0 0 0.1-0.1 0-0.1 0 0 0-0.1 0h-9.2v8h8.2q0 0 0.1 0 0 0 0 0 0 0 0.1 0.1 0 0 0 0v0.9q0 0 0 0-0.1 0.1-0.1 0.1 0 0 0 0-0.1 0.1-0.1 0h-8.2v8.9q0 0.1 0 0.1-0.1 0.1-0.1 0.1 0 0 0 0-0.1 0-0.1 0c0 0-1 0-1 0z"/>
			<path id="Path_1641" class="s0" d="m73.7 19.4q0 0 0 0-0.1 0-0.1 0 0 0 0-0.1-0.1 0 0 0v-18.1h-6q-0.2 0-0.2-0.2v-0.8q0-0.2 0.2-0.2h13.2q0.1 0 0.1 0 0 0 0.1 0 0 0.1 0 0.1 0 0 0 0.1v0.8q0 0.1 0 0.1 0 0 0 0.1-0.1 0-0.1 0 0 0-0.1 0h-5.9v18.1q0 0 0 0-0.1 0.1-0.1 0.1 0 0 0 0-0.1 0-0.1 0c0 0-1 0-1 0z"/>
		</g>
	</g>
</svg>