<svg xmlns="http://www.w3.org/2000/svg" width="66.941" height="49.286" viewBox="0 0 66.941 49.286">
  <path id="cloud" d="M31.495,9.563a15.085,15.085,0,0,1,2.975.3,15.752,15.752,0,0,1,12.5,12.484L47.483,25l2.659.473a10.83,10.83,0,0,1-1.969,21.5H14.76a10.83,10.83,0,0,1-1.969-21.5L15.43,25l.511-2.659A15.752,15.752,0,0,1,31.495,9.563m0-3.938A19.69,19.69,0,0,0,12.14,21.613a14.768,14.768,0,0,0,2.6,29.3H48.211a14.768,14.768,0,0,0,2.6-29.3A19.69,19.69,0,0,0,35.176,5.979a20.222,20.222,0,0,0-3.681-.354Z" transform="translate(1.996 -3.625)" fill="#78c3fb" stroke="#78c3fb" stroke-width="4"/>
</svg>
