<svg xmlns="http://www.w3.org/2000/svg" width="131.758" height="95.084" viewBox="0 0 131.758 95.084">
  <path id="cloud" d="M65.42,13.806a31.339,31.339,0,0,1,6.18.615A32.725,32.725,0,0,1,97.574,40.357l1.062,5.523,5.523.982a22.5,22.5,0,0,1-4.091,44.669H30.652a22.5,22.5,0,0,1-4.091-44.669l5.483-.982,1.062-5.523A32.725,32.725,0,0,1,65.42,13.806m0-8.181A40.906,40.906,0,0,0,25.208,38.841a30.681,30.681,0,0,0,5.4,60.868h69.54a30.681,30.681,0,0,0,5.4-60.868A40.906,40.906,0,0,0,73.066,6.36a42.012,42.012,0,0,0-7.647-.734Z" transform="translate(0.501 -5.125)" fill="#78c3fb" stroke="#78c3fb" stroke-width="1"/>
</svg>
