<svg xmlns="http://www.w3.org/2000/svg" width="96.885" height="70.832" viewBox="0 0 96.885 70.832">
  <path id="cloud" d="M46.474,11.436a22.261,22.261,0,0,1,4.39.437A23.246,23.246,0,0,1,69.314,30.3l.754,3.923,3.923.7a15.983,15.983,0,0,1-2.906,31.731H21.776a15.983,15.983,0,0,1-2.906-31.731l3.895-.7L23.52,30.3a23.246,23.246,0,0,1,22.954-18.86m0-5.811A29.057,29.057,0,0,0,17.91,29.22a21.794,21.794,0,0,0,3.836,43.237h49.4A21.794,21.794,0,0,0,74.978,29.22,29.057,29.057,0,0,0,51.906,6.147a29.843,29.843,0,0,0-5.432-.522Z" transform="translate(1.998 -3.625)" fill="#78c3fb" stroke="#78c3fb" stroke-width="4"/>
</svg>
